<svg width="44" height="44" viewBox="0 0 44 44" fill="none" xmlns="http://www.w3.org/2000/svg">
<path d="M37.5564 6.44363C33.4012 2.28842 27.8763 0 22 0C17.5289 0 13.2236 1.33505 9.55048 3.86047C9.15939 4.1297 9.06036 4.66446 9.32925 5.05554C9.59814 5.44696 10.1332 5.54599 10.5243 5.27676C13.9098 2.94907 17.878 1.71875 22 1.71875C33.183 1.71875 42.2812 10.817 42.2812 22C42.2812 33.183 33.183 42.2812 22 42.2812C10.817 42.2812 1.71875 33.183 1.71875 22C1.71875 17.8773 2.94907 13.9095 5.27643 10.5247C5.54532 10.1336 5.44629 9.59882 5.05521 9.32993C4.66446 9.06104 4.12936 9.15973 3.86014 9.55081C1.33472 13.2233 0 17.5282 0 22C0 27.8763 2.28842 33.4012 6.44363 37.5564C10.5988 41.7116 16.1237 44 22 44C27.8763 44 33.4012 41.7116 37.5564 37.5564C41.7116 33.4012 44 27.8763 44 22C44 16.1237 41.7116 10.5988 37.5564 6.44363Z" fill="#AFB1FF"/>
<path d="M7.05066 7.91064C7.27087 7.91064 7.49109 7.82672 7.65893 7.65887C7.99429 7.32352 7.99429 6.77936 7.65893 6.44366C7.32324 6.10797 6.77908 6.10797 6.44339 6.44366L6.44305 6.444C6.10736 6.77969 6.10769 7.32352 6.44305 7.65921C6.6109 7.82706 6.83078 7.91064 7.05066 7.91064Z" fill="#AFB1FF"/>
<path d="M15.0961 27.9545C14.9732 27.4959 14.5019 27.224 14.0437 27.3469C13.5851 27.4698 13.3129 27.9407 13.4357 28.3993C14.4727 32.2685 17.9945 34.9708 22.0003 34.9708C26.0061 34.9708 29.5279 32.2688 30.5648 28.3993C30.6877 27.9407 30.4154 27.4698 29.9569 27.3469C29.4983 27.224 29.0274 27.4959 28.9045 27.9545C28.0686 31.0738 25.2297 33.2521 22.0003 33.2521C18.7709 33.2521 15.932 31.0738 15.0961 27.9545Z" fill="#AFB1FF"/>
<path d="M26.6866 21.662C26.9518 20.673 27.8518 19.9822 28.8756 19.9822C29.8992 19.9822 30.7992 20.673 31.0644 21.662C31.1671 22.0457 31.5142 22.2991 31.8939 22.2991C31.9674 22.2991 32.0422 22.2894 32.1168 22.2696C32.5753 22.1467 32.8472 21.6754 32.7244 21.2172C32.2584 19.478 30.676 18.2634 28.8756 18.2634C27.0753 18.2634 25.4925 19.478 25.0266 21.2172C24.9037 21.6754 25.1756 22.1467 25.6342 22.2696C26.0931 22.3925 26.5641 22.1202 26.6866 21.662Z" fill="#AFB1FF"/>
<path d="M15.1243 18.2634C13.324 18.2634 11.7416 19.478 11.2756 21.2172C11.1527 21.6754 11.4247 22.1467 11.8832 22.2696C12.3421 22.3925 12.8131 22.1202 12.9356 21.662C13.2008 20.673 14.1008 19.9822 15.1243 19.9822C16.1482 19.9822 17.0482 20.673 17.3134 21.662C17.4161 22.0457 17.7632 22.2991 18.1429 22.2991C18.2164 22.2991 18.2913 22.2894 18.3658 22.2696C18.8243 22.1467 19.0963 21.6754 18.9734 21.2172C18.5075 19.478 16.9247 18.2634 15.1243 18.2634Z" fill="#AFB1FF"/>
</svg>
