<svg width="45" height="44" viewBox="0 0 45 44" fill="none" xmlns="http://www.w3.org/2000/svg">
<g clip-path="url(#clip0)">
<path d="M15.78 15.8542C14.3489 15.8542 13.1846 17.2592 13.1846 18.9862C13.1846 20.7131 14.3489 22.1181 15.78 22.1181C17.2111 22.1181 18.3755 20.7131 18.3755 18.9862C18.3754 17.2592 17.2111 15.8542 15.78 15.8542ZM15.78 20.8292C15.0718 20.8292 14.4735 19.9852 14.4735 18.9862C14.4735 17.9871 15.0718 17.1431 15.78 17.1431C16.4882 17.1431 17.0865 17.9871 17.0865 18.9862C17.0865 19.9852 16.4882 20.8292 15.78 20.8292Z" fill="#AFB1FF"/>
<path d="M29.3225 15.8542C27.8914 15.8542 26.7271 17.2592 26.7271 18.9862C26.7271 20.7131 27.8914 22.1181 29.3225 22.1181C30.7537 22.1181 31.9179 20.7132 31.9179 18.9862C31.9179 17.2592 30.7536 15.8542 29.3225 15.8542ZM29.3225 20.8291C28.6143 20.8292 28.016 19.9851 28.016 18.9861C28.016 17.987 28.6143 17.1431 29.3225 17.1431C30.0307 17.1431 30.629 17.987 30.629 18.9861C30.629 19.9851 30.0307 20.8291 29.3225 20.8291Z" fill="#AFB1FF"/>
<path d="M30.7408 28.7897H14.3608C14.0047 28.7897 13.7163 29.0783 13.7163 29.4341C13.7163 29.7902 14.0048 30.0786 14.3608 30.0786H30.7408C31.0968 30.0786 31.3853 29.7901 31.3853 29.4341C31.3853 29.0782 31.0968 28.7897 30.7408 28.7897Z" fill="#AFB1FF"/>
<path d="M41.5969 11.0046C35.7644 0.902411 23.0478 -2.89259 12.6464 2.36515C12.3287 2.52568 12.2014 2.91335 12.3619 3.23097C12.5224 3.54868 12.9101 3.67613 13.2278 3.51551C23.0191 -1.43354 34.9898 2.13905 40.4806 11.6492C46.0525 21.2999 42.9578 33.4829 33.7764 39.3972C33.4772 39.5898 33.3909 39.9887 33.5836 40.2879C33.7762 40.5868 34.1747 40.6737 34.4744 40.4808C44.2325 34.1948 47.5131 21.252 41.5969 11.0046Z" fill="#AFB1FF"/>
<path d="M32.073 41.1177C31.9236 40.7946 31.5408 40.654 31.2176 40.8031C26.5495 42.9614 21.2657 43.2977 16.3392 41.7502C6.07571 38.5262 -0.0232745 27.9547 2.35694 17.4378C3.503 12.3736 6.4736 7.95988 10.7217 5.00955C11.0141 4.80657 11.0865 4.40498 10.8835 4.11262C10.6805 3.82044 10.2792 3.74773 9.98655 3.95089C5.4732 7.08546 2.31715 11.7742 1.09976 17.1533C-2.01264 30.906 8.46916 43.9972 22.5662 43.9972C25.716 43.9971 28.8498 43.318 31.7585 41.9732C32.0816 41.8237 32.2224 41.4408 32.073 41.1177Z" fill="#AFB1FF"/>
</g>
<defs>
<clipPath id="clip0">
<rect width="44" height="44" fill="white" transform="translate(0.549316)"/>
</clipPath>
</defs>
</svg>
