<svg width="17" height="17" viewBox="0 0 17 17" fill="none" xmlns="http://www.w3.org/2000/svg">
<g clip-path="url(#clip0)">
<path d="M14.6842 4.42513L13.4873 3.22822V1.44288C13.4873 1.05072 13.1682 0.731689 12.776 0.731689H2.94938C2.56213 0.731689 2.24707 1.04675 2.24707 1.434V13.2162C2.24707 13.6035 2.56213 13.9185 2.94938 13.9185H3.34663V14.3099C3.34663 14.6972 3.6617 15.0122 4.04898 15.0122H5.57251C5.70195 15.0122 5.80688 14.9073 5.80688 14.7778C5.80688 14.6484 5.70195 14.5435 5.57251 14.5435H4.04898C3.92016 14.5435 3.81538 14.4387 3.81538 14.3099V4.88666C3.81538 4.75719 3.71045 4.65228 3.58101 4.65228C3.45157 4.65228 3.34663 4.75719 3.34663 4.88666V13.4498H2.94938C2.8206 13.4498 2.71582 13.345 2.71582 13.2162V1.434C2.71582 1.30522 2.8206 1.20044 2.94938 1.20044H12.7761C12.9098 1.20044 13.0185 1.30919 13.0185 1.44288V2.7595L12.153 1.89403C12.109 1.8501 12.0494 1.82541 11.9873 1.82541H4.04898C3.6617 1.82541 3.34663 2.14047 3.34663 2.52772V3.79563C3.34663 3.9251 3.45157 4.03 3.58101 4.03C3.71045 4.03 3.81538 3.9251 3.81538 3.79563V2.52769C3.81538 2.39891 3.92016 2.29413 4.04898 2.29413H11.7529V4.59044C11.7529 4.71988 11.8578 4.82478 11.9872 4.82481L14.2841 4.82519V14.3099C14.2841 14.4387 14.1793 14.5434 14.0506 14.5434H12.5453C12.4158 14.5434 12.3109 14.6483 12.3109 14.7778C12.3109 14.9073 12.4158 15.0122 12.5453 15.0122H14.0506C14.4378 15.0122 14.7529 14.6971 14.7529 14.3099V4.59088C14.7529 4.52872 14.7282 4.46913 14.6842 4.42513ZM12.2216 4.3561V2.62556L13.9526 4.35641L12.2216 4.3561Z" fill="#2930FF"/>
<path d="M11.8589 6.21472H6.25195C6.12252 6.21472 6.01758 6.31963 6.01758 6.4491C6.01758 6.57857 6.12252 6.68347 6.25195 6.68347H11.8589C11.9883 6.68347 12.0933 6.57857 12.0933 6.4491C12.0933 6.31963 11.9883 6.21472 11.8589 6.21472Z" fill="#2930FF"/>
<path d="M11.8589 7.59692H6.25195C6.12252 7.59692 6.01758 7.70183 6.01758 7.8313C6.01758 7.96077 6.12252 8.06567 6.25195 8.06567H11.8589C11.9883 8.06567 12.0933 7.96077 12.0933 7.8313C12.0933 7.70183 11.9883 7.59692 11.8589 7.59692Z" fill="#2930FF"/>
<path d="M11.8587 9.00671H10.751C10.6215 9.00671 10.5166 9.11162 10.5166 9.24109C10.5166 9.37056 10.6215 9.47546 10.751 9.47546H11.8587C11.9881 9.47546 12.0931 9.37056 12.0931 9.24109C12.0931 9.11162 11.9881 9.00671 11.8587 9.00671Z" fill="#2930FF"/>
<path d="M9.64814 9.47546C9.77758 9.47546 9.88252 9.37056 9.88252 9.24109C9.88252 9.11162 9.77758 9.00671 9.64814 9.00671H6.25195C6.12252 9.00671 6.01758 9.11162 6.01758 9.24109C6.01758 9.37056 6.12252 9.47546 6.25195 9.47546H9.64814Z" fill="#2930FF"/>
<path d="M9.91436 14.0133L9.28954 14.6381V12.3723C9.28954 12.2428 9.18461 12.1379 9.05517 12.1379C8.92573 12.1379 8.82079 12.2428 8.82079 12.3723V14.6381L8.19598 14.0133C8.10445 13.9218 7.95605 13.9218 7.86455 14.0134C7.77302 14.1049 7.77302 14.2533 7.86455 14.3448L8.88945 15.3697C8.9352 15.4154 8.9952 15.4383 9.05517 15.4383C9.11514 15.4383 9.17514 15.4154 9.22089 15.3697L10.2458 14.3448C10.3373 14.2533 10.3373 14.1049 10.2458 14.0134C10.1543 13.9218 10.0059 13.9218 9.91436 14.0133Z" fill="#2930FF"/>
<path d="M9.05504 10.8445C7.43189 10.8445 6.11133 12.165 6.11133 13.7881C6.11133 15.4111 7.43189 16.7316 9.05504 16.7316C10.6782 16.7316 11.9988 15.4111 11.9988 13.7881C11.9988 12.165 10.6782 10.8445 9.05504 10.8445ZM9.05504 16.2629C7.69036 16.2629 6.58008 15.1527 6.58008 13.7881C6.58008 12.4235 7.69036 11.3133 9.05504 11.3133C10.4197 11.3133 11.53 12.4235 11.53 13.7881C11.53 15.1527 10.4197 16.2629 9.05504 16.2629Z" fill="#2930FF"/>
</g>
<defs>
<clipPath id="clip0">
<rect width="16" height="16" fill="white" transform="translate(0.5 0.731689)"/>
</clipPath>
</defs>
</svg>
