<svg width="20" height="20" viewBox="0 0 20 20" fill="none" xmlns="http://www.w3.org/2000/svg">
<path d="M15.8874 0H6.18811C4.9854 0 4.01546 0.969932 3.99607 2.17265C2.83215 2.23084 1.92041 3.20078 1.92041 4.36469V17.808C1.92041 19.0107 2.90974 20 4.11246 20H13.8118C15.0145 20 15.9844 19.0301 16.0038 17.8274C17.1677 17.7692 18.0795 16.7992 18.0795 15.6353V2.21145C18.0989 0.989331 17.1095 0 15.8874 0ZM15.2861 17.808C15.2861 18.6227 14.6265 19.2823 13.8118 19.2823H4.11246C3.29771 19.2823 2.65756 18.6227 2.65756 17.8274V4.36469C2.65756 3.54995 3.31711 2.9098 4.11246 2.9098H11.9495V6.28516C11.9495 6.47915 12.1047 6.65373 12.3181 6.65373H15.2861V17.808ZM12.6867 5.91659V3.49176L14.8399 5.91659H12.6867ZM16.0232 17.1096V6.28516C16.0232 6.24636 16.0038 6.18817 16.0038 6.14937C16.0038 6.12997 15.9844 6.11057 15.9844 6.11057C15.965 6.09117 15.965 6.07178 15.9456 6.05238L12.5897 2.28904C12.5703 2.26964 12.5315 2.25024 12.4927 2.23084C12.4733 2.23084 12.4733 2.21145 12.4539 2.21145C12.4151 2.19205 12.3569 2.17265 12.2987 2.17265H4.73321C4.75261 1.3773 5.39277 0.737148 6.18811 0.737148H15.8874C16.7022 0.737148 17.3423 1.3967 17.3423 2.19205V15.6547H17.3617C17.3617 16.4113 16.7604 17.0514 16.0232 17.1096Z" fill="#2930FF"/>
<path d="M4.55852 6.65378H7.79809C7.99208 6.65378 8.16667 6.49859 8.16667 6.2852C8.16667 6.09121 8.01148 5.91663 7.79809 5.91663H4.55852C4.36453 5.91663 4.18994 6.07182 4.18994 6.2852C4.18994 6.49859 4.34513 6.65378 4.55852 6.65378Z" fill="#2930FF"/>
<path d="M7.77869 15.5576H4.55852C4.36453 15.5576 4.18994 15.7128 4.18994 15.9262C4.18994 16.1202 4.34513 16.2948 4.55852 16.2948H7.79809C7.99208 16.2948 8.16667 16.1396 8.16667 15.9262C8.14727 15.7322 7.99208 15.5576 7.77869 15.5576Z" fill="#2930FF"/>
<path d="M4.18994 8.72929C4.18994 8.92328 4.34513 9.09787 4.55852 9.09787H13.2103C13.4043 9.09787 13.5789 8.94268 13.5789 8.72929C13.5789 8.53531 13.4043 8.36072 13.2103 8.36072H4.55852C4.36453 8.36072 4.18994 8.51591 4.18994 8.72929Z" fill="#2930FF"/>
<path d="M13.2103 10.1649H4.55852C4.36453 10.1649 4.18994 10.3201 4.18994 10.5335C4.18994 10.7275 4.34513 10.9021 4.55852 10.9021H13.2103C13.4043 10.9021 13.5789 10.7469 13.5789 10.5335C13.5789 10.3395 13.4043 10.1649 13.2103 10.1649Z" fill="#2930FF"/>
<path d="M13.2103 11.9883H4.55852C4.36453 11.9883 4.18994 12.1435 4.18994 12.3569C4.18994 12.5508 4.34513 12.7254 4.55852 12.7254H13.2103C13.4043 12.7254 13.5789 12.5702 13.5789 12.3569C13.5789 12.1435 13.4043 11.9883 13.2103 11.9883Z" fill="#2930FF"/>
<path d="M13.2103 13.7925H4.55852C4.36453 13.7925 4.18994 13.9477 4.18994 14.1611C4.18994 14.355 4.34513 14.5296 4.55852 14.5296H13.2103C13.4043 14.5296 13.5789 14.3744 13.5789 14.1611C13.5789 13.9477 13.4043 13.7925 13.2103 13.7925Z" fill="#2930FF"/>
</svg>
