<svg width="32" height="32" viewBox="0 0 32 32" fill="none" xmlns="http://www.w3.org/2000/svg">
<path d="M25.4197 0H9.90083C7.97649 0 6.4246 1.55189 6.39356 3.47624C4.53129 3.56935 3.07251 5.12124 3.07251 6.98351V28.4927C3.07251 30.4171 4.65544 32 6.57978 32H22.0987C24.023 32 25.5749 30.4481 25.606 28.5238C27.4682 28.4307 28.927 26.8788 28.927 25.0165V3.53831C28.9581 1.58293 27.3751 0 25.4197 0ZM24.4576 28.4927C24.4576 29.7963 23.4023 30.8516 22.0987 30.8516H6.57978C5.2762 30.8516 4.25195 29.7963 4.25195 28.5238V6.98351C4.25195 5.67992 5.30723 4.65567 6.57978 4.65567H19.1191V10.0563C19.1191 10.3666 19.3674 10.646 19.7088 10.646H24.4576V28.4927ZM20.2985 9.46654V5.58681L23.7437 9.46654H20.2985ZM25.637 27.3754V10.0563C25.637 9.99418 25.606 9.90107 25.606 9.83899C25.606 9.80795 25.5749 9.77692 25.5749 9.77692C25.5439 9.74588 25.5439 9.71484 25.5129 9.6838L20.1433 3.66246C20.1123 3.63143 20.0502 3.60039 19.9881 3.56935C19.9571 3.56935 19.9571 3.53831 19.9261 3.53831C19.864 3.50727 19.7709 3.47624 19.6777 3.47624H7.573C7.60403 2.20369 8.62828 1.17944 9.90083 1.17944H25.4197C26.7233 1.17944 27.7476 2.23472 27.7476 3.50727V25.0475H27.7786C27.7786 26.258 26.8165 27.2822 25.637 27.3754Z" fill="#BDBDBD"/>
<path d="M7.29358 10.646H12.4769C12.7873 10.646 13.0666 10.3977 13.0666 10.0563C13.0666 9.74589 12.8183 9.46655 12.4769 9.46655H7.29358C6.9832 9.46655 6.70386 9.71486 6.70386 10.0563C6.70386 10.3977 6.95216 10.646 7.29358 10.646Z" fill="#BDBDBD"/>
<path d="M12.4459 24.8923H7.29358C6.9832 24.8923 6.70386 25.1406 6.70386 25.482C6.70386 25.7924 6.95216 26.0717 7.29358 26.0717H12.4769C12.7873 26.0717 13.0666 25.8234 13.0666 25.482C13.0356 25.1716 12.7873 24.8923 12.4459 24.8923Z" fill="#BDBDBD"/>
<path d="M6.70386 13.967C6.70386 14.2774 6.95216 14.5567 7.29358 14.5567H21.1364C21.4468 14.5567 21.7262 14.3084 21.7262 13.967C21.7262 13.6566 21.4468 13.3773 21.1364 13.3773H7.29358C6.9832 13.3773 6.70386 13.6256 6.70386 13.967Z" fill="#BDBDBD"/>
<path d="M21.1364 16.2639H7.29358C6.9832 16.2639 6.70386 16.5122 6.70386 16.8536C6.70386 17.164 6.95216 17.4433 7.29358 17.4433H21.1364C21.4468 17.4433 21.7262 17.195 21.7262 16.8536C21.7262 16.5432 21.4468 16.2639 21.1364 16.2639Z" fill="#BDBDBD"/>
<path d="M21.1364 19.1813H7.29358C6.9832 19.1813 6.70386 19.4296 6.70386 19.7711C6.70386 20.0814 6.95216 20.3608 7.29358 20.3608H21.1364C21.4468 20.3608 21.7262 20.1125 21.7262 19.7711C21.7262 19.4296 21.4468 19.1813 21.1364 19.1813Z" fill="#BDBDBD"/>
<path d="M21.1364 22.0679H7.29358C6.9832 22.0679 6.70386 22.3162 6.70386 22.6576C6.70386 22.968 6.95216 23.2473 7.29358 23.2473H21.1364C21.4468 23.2473 21.7262 22.999 21.7262 22.6576C21.7262 22.3162 21.4468 22.0679 21.1364 22.0679Z" fill="#BDBDBD"/>
</svg>
