<svg width="20" height="25" viewBox="0 0 20 25" fill="none" xmlns="http://www.w3.org/2000/svg">
<path d="M19.1465 5.54589L17.3818 3.75053V1.07252C17.3818 0.484284 16.9115 0.0057373 16.3333 0.0057373H1.84596C1.27504 0.0057373 0.810547 0.478331 0.810547 1.05921V18.7325C0.810547 19.3134 1.27504 19.786 1.84596 19.786H2.43162V20.373C2.43162 20.9539 2.89611 21.4265 3.46708 21.4265H5.71321C5.90404 21.4265 6.05874 21.2692 6.05874 21.075C6.05874 20.8807 5.90404 20.7234 5.71321 20.7234H3.46708C3.27717 20.7234 3.12269 20.5662 3.12269 20.373V6.23818C3.12269 6.04398 2.96799 5.88662 2.77716 5.88662C2.58633 5.88662 2.43162 6.04398 2.43162 6.23818V19.0829H1.84596C1.6561 19.0829 1.50162 18.9257 1.50162 18.7325V1.05921C1.50162 0.866033 1.6561 0.708862 1.84596 0.708862H16.3333C16.5304 0.708862 16.6908 0.871986 16.6908 1.07252V3.04745L15.4148 1.74925C15.3499 1.68335 15.2621 1.64631 15.1705 1.64631H3.46708C2.89611 1.64631 2.43162 2.11891 2.43162 2.69978V4.60164C2.43162 4.79584 2.58633 4.9532 2.77716 4.9532C2.96799 4.9532 3.12269 4.79584 3.12269 4.60164V2.69973C3.12269 2.50656 3.27717 2.34939 3.46708 2.34939H14.8249V5.79386C14.8249 5.98801 14.9795 6.14537 15.1704 6.14542L18.5567 6.14598V20.373C18.5567 20.5662 18.4022 20.7233 18.2123 20.7233H15.9931C15.8022 20.7233 15.6475 20.8807 15.6475 21.0749C15.6475 21.2691 15.8022 21.4265 15.9931 21.4265H18.2123C18.7832 21.4265 19.2477 20.9539 19.2477 20.373V5.79451C19.2477 5.70128 19.2113 5.61189 19.1465 5.54589ZM15.5159 5.44234V2.84655L18.0679 5.44281L15.5159 5.44234Z" fill="#2930FF"/>
<path d="M14.9819 8.23022H6.71565C6.52482 8.23022 6.37012 8.38758 6.37012 8.58179C6.37012 8.77599 6.52482 8.93335 6.71565 8.93335H14.9819C15.1727 8.93335 15.3274 8.77599 15.3274 8.58179C15.3274 8.38758 15.1727 8.23022 14.9819 8.23022Z" fill="#2930FF"/>
<path d="M14.9819 10.3037H6.71565C6.52482 10.3037 6.37012 10.4611 6.37012 10.6553C6.37012 10.8495 6.52482 11.0068 6.71565 11.0068H14.9819C15.1727 11.0068 15.3274 10.8495 15.3274 10.6553C15.3274 10.4611 15.1727 10.3037 14.9819 10.3037Z" fill="#2930FF"/>
<path d="M14.9816 12.4183H13.3485C13.1576 12.4183 13.0029 12.5757 13.0029 12.7699C13.0029 12.9641 13.1576 13.1215 13.3485 13.1215H14.9816C15.1724 13.1215 15.3271 12.9641 15.3271 12.7699C15.3271 12.5757 15.1724 12.4183 14.9816 12.4183Z" fill="#2930FF"/>
<path d="M11.7227 13.1215C11.9135 13.1215 12.0682 12.9641 12.0682 12.7699C12.0682 12.5757 11.9135 12.4183 11.7227 12.4183H6.71566C6.52483 12.4183 6.37012 12.5757 6.37012 12.7699C6.37012 12.9641 6.52483 13.1215 6.71566 13.1215H11.7227Z" fill="#2930FF"/>
<path d="M12.1153 19.2526L11.1942 18.3154V21.7141C11.1942 21.9083 11.0395 22.0657 10.8487 22.0657C10.6579 22.0657 10.5031 21.9083 10.5031 21.7141V18.3154L9.58202 19.2526C9.44708 19.3898 9.22829 19.3899 9.09339 19.2525C8.95845 19.1152 8.95845 18.8926 9.09339 18.7554L10.6044 17.2181C10.6718 17.1494 10.7603 17.1151 10.8487 17.1151C10.9371 17.1151 11.0255 17.1494 11.093 17.2181L12.604 18.7554C12.7389 18.8927 12.7389 19.1153 12.604 19.2525C12.4691 19.3898 12.2503 19.3898 12.1153 19.2526Z" fill="#2930FF"/>
<path d="M10.8477 15.1749C8.45469 15.1749 6.50781 17.1557 6.50781 19.5903C6.50781 22.0249 8.45469 24.0057 10.8477 24.0057C13.2407 24.0057 15.1875 22.0249 15.1875 19.5903C15.1875 17.1557 13.2407 15.1749 10.8477 15.1749ZM10.8477 23.3026C8.83574 23.3026 7.19888 21.6373 7.19888 19.5904C7.19888 17.5434 8.83574 15.8781 10.8477 15.8781C12.8596 15.8781 14.4965 17.5434 14.4965 19.5904C14.4965 21.6373 12.8596 23.3026 10.8477 23.3026Z" fill="#2930FF"/>
</svg>
