<svg width="99" height="48" viewBox="0 0 99 48" fill="none" xmlns="http://www.w3.org/2000/svg">
<path d="M27.3723 35.3084H20.3013C20.2502 35.3084 20.1998 35.2956 20.1547 35.2712C20.1096 35.2468 20.0712 35.2116 20.0429 35.1686L7.53389 16.0955V34.998C7.53389 35.0798 7.5016 35.1583 7.44411 35.2162C7.38662 35.2741 7.30864 35.3066 7.22734 35.3066H0.283319C0.208175 35.3066 0.136126 35.2766 0.0829912 35.2231C0.0298563 35.1696 0 35.097 0 35.0213V4.45875C0 4.4196 0.00765496 4.38085 0.0225319 4.34468C0.0374089 4.30851 0.0592174 4.27563 0.0867064 4.24795C0.114195 4.22026 0.146825 4.1983 0.182741 4.18332C0.218657 4.16834 0.25714 4.16063 0.296015 4.16063H7.36836C7.41919 4.16065 7.46921 4.17339 7.51392 4.19772C7.55864 4.22205 7.59667 4.2572 7.62455 4.29999L20.1349 23.4622V4.36614C20.1349 4.30577 20.1536 4.2469 20.1885 4.19779C20.2234 4.14867 20.2726 4.11178 20.3293 4.09227L27.2629 1.71077C27.309 1.69484 27.3583 1.69023 27.4066 1.69733C27.4548 1.70443 27.5007 1.72303 27.5404 1.75158C27.5801 1.78013 27.6125 1.81782 27.6348 1.8615C27.6571 1.90518 27.6688 1.95359 27.6688 2.00272V35.0085C27.669 35.0479 27.6614 35.0868 27.6466 35.1232C27.6318 35.1596 27.61 35.1926 27.5825 35.2205C27.5549 35.2484 27.5222 35.2705 27.4861 35.2856C27.45 35.3007 27.4114 35.3084 27.3723 35.3084Z" fill="#2962FF"/>
<path d="M33.066 15.8298C33.9267 14.012 35.2771 12.4742 36.9635 11.3918C38.6142 10.3547 40.5256 9.81601 42.4711 9.83944C44.0557 9.80426 45.6236 10.1703 47.0312 10.9041C48.2665 11.5484 49.3084 12.5134 50.0493 13.6992V10.396C50.0496 10.3376 50.0679 10.2807 50.1019 10.2332C50.1358 10.1858 50.1835 10.1502 50.2385 10.1314L57.1882 7.74284C57.2331 7.72759 57.2809 7.7233 57.3278 7.73035C57.3746 7.73739 57.4191 7.75556 57.4576 7.78335C57.4961 7.81114 57.5275 7.84776 57.5492 7.89017C57.5709 7.93259 57.5822 7.97958 57.5823 8.02729V34.6467C57.5823 34.7286 57.55 34.8071 57.4925 34.865C57.435 34.9229 57.3571 34.9554 57.2758 34.9554H50.3506C50.2711 34.9554 50.1949 34.9236 50.1388 34.8671C50.0826 34.8105 50.051 34.7338 50.051 34.6538V31.4506C49.286 32.6319 48.2312 33.5944 46.9887 34.2449C45.5815 34.9794 44.0136 35.3458 42.4291 35.3104C40.4948 35.3292 38.5966 34.782 36.9652 33.7351C35.2767 32.636 33.9268 31.0836 33.0678 29.253C32.1242 27.1435 31.6362 24.8562 31.6362 22.5425C31.6362 20.2288 32.1242 17.9415 33.0678 15.832L33.066 15.8298ZM48.4864 18.0918C48.0032 17.5659 47.4158 17.1481 46.7622 16.8654C46.1085 16.5827 45.4031 16.4414 44.6918 16.4507C43.6549 16.4474 42.6397 16.7494 41.7709 17.3195C40.1229 18.4136 39.2995 20.1503 39.3006 22.5297C39.3006 24.4223 39.822 25.9235 40.8649 27.0334C41.3526 27.5734 41.9499 28.0014 42.6163 28.2885C43.2828 28.5755 44.0027 28.7148 44.7273 28.6969C45.7608 28.6887 46.7687 28.3726 47.6241 27.7884C49.2403 26.6712 50.0493 24.933 50.051 22.5738C50.051 20.681 49.5295 19.187 48.4864 18.0918Z" fill="#021947"/>
<path d="M69.0847 0.291634V35.0262C69.0847 35.1011 69.0552 35.1729 69.0026 35.2258C68.9501 35.2787 68.8788 35.3085 68.8044 35.3085H61.835C61.7597 35.3085 61.6875 35.2784 61.6342 35.2248C61.5809 35.1712 61.5509 35.0985 61.5508 35.0227V2.6846C61.5507 2.62302 61.5699 2.56297 61.6054 2.5129C61.641 2.46283 61.6913 2.42525 61.7492 2.40543L68.702 0.0155537C68.7455 0.000615762 68.792 -0.00364615 68.8375 0.00313123C68.8831 0.00990862 68.9264 0.0275237 68.9638 0.0545169C69.0012 0.0815102 69.0317 0.117101 69.0527 0.158338C69.0738 0.199575 69.0847 0.245277 69.0847 0.291634Z" fill="#021947"/>
<path d="M74.4819 15.8302C75.3426 14.0124 76.693 12.4747 78.3794 11.3922C80.0301 10.3551 81.9415 9.81638 83.887 9.83986C85.4714 9.80464 87.0392 10.1707 88.4466 10.9045C89.6821 11.5486 90.7241 12.5136 91.4647 13.6996V10.4096C91.4647 10.347 91.4841 10.2859 91.5204 10.235C91.5566 10.1841 91.6077 10.1458 91.6666 10.1256L98.6058 7.74061C98.6506 7.72498 98.6984 7.72037 98.7453 7.72717C98.7923 7.73398 98.8369 7.752 98.8755 7.77972C98.914 7.80743 98.9455 7.84404 98.9671 7.8865C98.9888 7.92895 99 7.97601 98.9999 8.02374V34.6612C98.9999 34.7388 98.9693 34.8132 98.9149 34.868C98.8604 34.9228 98.7866 34.9536 98.7096 34.9536H91.7686C91.6886 34.9535 91.612 34.9215 91.5554 34.8645C91.4989 34.8076 91.467 34.7303 91.4669 34.6498V31.4489C90.7019 32.63 89.6473 33.5925 88.405 34.2432C86.9977 34.9776 85.4296 35.344 83.845 35.3087C81.9108 35.3276 80.0127 34.7803 78.3815 33.7333C76.6931 32.6342 75.3432 31.0818 74.4841 29.2513C73.5408 27.1417 73.053 24.8544 73.053 22.5407C73.053 20.2271 73.5408 17.9398 74.4841 15.8302H74.4819ZM89.9027 18.0922C89.4196 17.5664 88.8322 17.1486 88.1787 16.8659C87.5251 16.5832 86.8198 16.4419 86.1086 16.4512C85.0714 16.4476 84.0558 16.7496 83.1868 17.32C81.5394 18.414 80.7159 20.1507 80.7165 22.5302C80.7165 24.4227 81.2379 25.9239 82.2807 27.0338C82.7684 27.5737 83.3656 28.0016 84.0318 28.2887C84.6981 28.5757 85.4178 28.7151 86.1423 28.6974C87.176 28.6892 88.1843 28.3731 89.04 27.7889C90.6565 26.6716 91.4654 24.9334 91.4669 22.5743C91.4675 20.6814 90.9461 19.1874 89.9027 18.0922Z" fill="#021947"/>
<path d="M65.5631 47.9992C63.0545 47.9852 60.5823 47.3929 58.3363 46.2676C56.0902 45.1423 54.1299 43.514 52.6056 41.5074C52.4897 41.3405 52.4076 41.1523 52.3639 40.9535C52.3203 40.7546 52.316 40.5491 52.3512 40.3486C52.4224 39.9436 52.6503 39.5837 52.985 39.348C53.3197 39.1123 53.7336 39.0202 54.1357 39.0918C54.5379 39.1635 54.8952 39.3931 55.1293 39.7301C56.3666 41.3306 57.9486 42.6273 59.756 43.5223C61.5634 44.4174 63.549 44.8875 65.5631 44.8971C67.4994 44.9241 69.4129 44.4744 71.1373 43.5869C72.8617 42.6995 74.3447 41.4013 75.4573 39.8051C75.6713 39.4548 76.0147 39.2044 76.412 39.1091C76.8093 39.0138 77.2279 39.0813 77.5757 39.2968C77.9236 39.5124 78.1722 39.8582 78.2668 40.2583C78.3615 40.6584 78.2944 41.0799 78.0804 41.4303C76.6907 43.4768 74.8215 45.1469 72.6382 46.2927C70.4549 47.4384 68.0249 48.0246 65.5631 47.9992Z" fill="#2962FF"/>
</svg>
