<svg width="90" height="88" viewBox="0 0 90 88" fill="none" xmlns="http://www.w3.org/2000/svg">
<g clip-path="url(#clip0)">
<path d="M19.5021 7.3022C20.2943 7.5443 20.7485 8.35611 20.5165 9.11534C15.2033 26.5759 25.6404 45.2308 43.8475 50.8162L71.9436 59.4021L61.5005 40.7409C61.1171 40.0267 61.3988 39.1612 62.1298 38.8078C62.843 38.4632 63.7242 38.7325 64.1228 39.4169L76.2956 61.1739C76.6927 61.8814 76.4277 62.7522 75.704 63.1188C75.703 63.1193 75.7017 63.12 75.7007 63.1205L53.4456 74.3568C52.7283 74.7346 51.8157 74.4722 51.4069 73.7707C50.9983 73.0691 51.2485 72.194 51.9657 71.816C51.9807 71.8081 51.9959 71.8004 52.0112 71.793L71.1034 62.1515L43.0075 53.5657C23.2169 47.4947 11.8721 27.2175 17.6476 8.2385C17.8796 7.4794 18.7098 7.0601 19.5021 7.3022Z" fill="#2196F3"/>
<path d="M52.3104 74.4457C52.691 74.5627 53.1005 74.53 53.4488 74.3546L75.7038 63.1183C76.4279 62.7526 76.6938 61.8824 76.2979 61.1744L64.1251 39.4174C63.7165 38.7159 62.8037 38.4534 62.0864 38.8313C61.3867 39.2 61.1287 40.0445 61.5027 40.7413L72.9572 61.2149L52.0152 71.7882C51.2904 72.153 51.0233 73.0231 51.4185 73.7316C51.6086 74.0722 51.9295 74.3292 52.3104 74.4457Z" fill="#2930FF"/>
<path d="M43.0078 53.5657L74.5667 63.2097C75.359 63.4518 76.1893 63.0326 76.4214 62.2734C76.6534 61.5141 76.1992 60.7023 75.4069 60.4602L43.8481 50.8162C25.6408 45.2307 15.2037 26.5758 20.517 9.1153C20.749 8.35606 20.2948 7.54425 19.5026 7.30215C18.7103 7.06005 17.88 7.47931 17.6479 8.23854C11.8725 27.2175 23.2173 47.4949 43.0078 53.5657Z" fill="#2930FF"/>
</g>
<defs>
<clipPath id="clip0">
<rect width="72" height="69" fill="white" transform="matrix(-0.956343 -0.292247 -0.292247 0.956343 89.0215 21.0417)"/>
</clipPath>
</defs>
</svg>
