<svg width="30" height="49" viewBox="0 0 30 49" fill="none" xmlns="http://www.w3.org/2000/svg">
<path d="M29.6785 35.4973H22.0118C21.9563 35.4973 21.9016 35.4838 21.8528 35.4581C21.8039 35.4323 21.7623 35.3951 21.7316 35.3497L8.16864 15.2081V35.1695C8.16864 35.2559 8.13363 35.3388 8.0713 35.4C8.00897 35.4611 7.92442 35.4955 7.83627 35.4955H0.30719C0.225715 35.4955 0.147595 35.4637 0.0899835 35.4072C0.0323717 35.3507 0 35.2741 0 35.1941V2.91953C0 2.87819 0.00829992 2.83726 0.0244303 2.79906C0.0405607 2.76087 0.0642067 2.72615 0.0940117 2.69692C0.123817 2.66768 0.159195 2.64449 0.198138 2.62867C0.23708 2.61285 0.278805 2.60471 0.320956 2.60471H7.98917C8.04428 2.60473 8.09851 2.61819 8.147 2.64388C8.19548 2.66957 8.23671 2.70668 8.26694 2.75188L21.8314 22.9876V2.82173C21.8313 2.75798 21.8517 2.69581 21.8895 2.64395C21.9273 2.59208 21.9806 2.55312 22.0422 2.53252L29.5598 0.0176173C29.6099 0.000792055 29.6633 -0.00407529 29.7156 0.00341874C29.768 0.0109128 29.8177 0.0305577 29.8608 0.0607103C29.9038 0.0908629 29.9389 0.130656 29.9631 0.176786C29.9873 0.222915 30 0.274036 30 0.32592V35.1806C30.0002 35.2222 29.992 35.2633 29.9759 35.3017C29.9599 35.3402 29.9362 35.3751 29.9064 35.4045C29.8765 35.4339 29.841 35.4573 29.8019 35.4732C29.7628 35.4891 29.7209 35.4973 29.6785 35.4973Z" fill="#2930FF"/>
<path d="M15.8418 48.899C13.1218 48.8842 10.4414 48.2587 8.00609 47.0704C5.5708 45.882 3.44532 44.1625 1.79256 42.0436C1.66692 41.8673 1.57787 41.6686 1.53055 41.4586C1.48323 41.2486 1.47856 41.0315 1.51676 40.8198C1.59392 40.3921 1.84111 40.012 2.20397 39.7631C2.56683 39.5143 3.01564 39.417 3.45165 39.4926C3.88766 39.5683 4.27513 39.8108 4.52887 40.1667C5.87043 41.8568 7.58573 43.2261 9.5454 44.1713C11.5051 45.1165 13.658 45.6129 15.8418 45.6231C17.9412 45.6517 20.016 45.1767 21.8856 44.2396C23.7553 43.3024 25.3632 41.9314 26.5696 40.2459C26.8017 39.8759 27.174 39.6116 27.6047 39.5109C28.0355 39.4102 28.4894 39.4816 28.8665 39.7091C29.2437 39.9367 29.5132 40.3019 29.6158 40.7244C29.7185 41.1469 29.6458 41.5921 29.4137 41.9621C27.9069 44.1233 25.8802 45.8869 23.513 47.0969C21.1458 48.3068 18.511 48.9258 15.8418 48.899Z" fill="#2930FF"/>
</svg>
