<svg width="125" height="114" viewBox="0 0 125 114" fill="none" xmlns="http://www.w3.org/2000/svg">
<g clip-path="url(#clip0_424_6966)">
<path d="M83.8906 33.8959L97.3549 43.5754L101.803 57.1221L91.1639 44.2537L83.8906 33.8959Z" fill="#B9B9B9"/>
<path d="M43.1352 32.954L29.0292 41.6273L24.3677 53.7628L35.5171 42.2348L43.1352 32.954Z" fill="#B9B9B9"/>
<path d="M54.5146 29.1735C54.5146 26.8364 57.9757 24.9397 62.2445 24.9397C66.5134 24.9397 69.9744 26.8364 69.9744 29.1735" fill="#EEEEEE"/>
<path d="M70.6831 29.1735H69.2623C69.2623 27.2672 66.0503 25.6566 62.238 25.6566C58.4258 25.6566 55.2138 27.264 55.2138 29.1735H53.793C53.793 26.3992 57.4999 24.2261 62.2317 24.2261C66.9635 24.2261 70.6831 26.3992 70.6831 29.1735Z" fill="#100E3F"/>
<path d="M61.726 113.264C32.5721 113.495 18.3767 100.315 16.726 86.4436C15.0753 72.5721 21.6813 57.6076 34.6602 41.6562C46.1832 27.4922 58.9482 29.3117 61.7164 29.286C62.2432 29.286 62.355 29.2603 62.7732 29.286C65.5351 29.4725 78.3064 27.4922 89.8262 41.6562C102.805 57.6076 109.414 72.5785 107.76 86.4436C106.107 100.309 93.7024 113.495 62.7317 113.28L61.726 113.264Z" fill="#EEEEEE"/>
<path d="M63.5006 114H62.7311L61.7158 113.981H61.0262C47.7407 113.981 36.5115 111.133 28.5102 105.729C21.3518 100.907 16.9106 94.0721 16.0134 86.5271C14.3978 72.9771 20.3142 58.1509 34.1041 41.1997C44.8767 27.9648 56.8818 28.4052 60.8154 28.5499C61.173 28.5499 61.47 28.5724 61.6967 28.5724H62.099C62.335 28.5582 62.5717 28.5582 62.8078 28.5724C63.0824 28.5724 63.5006 28.5724 64.0242 28.5724C68.3729 28.5145 79.9055 28.3409 90.3621 41.1965C104.152 58.1445 110.068 72.9707 108.453 86.5239C107.52 94.3453 103.434 100.99 96.6392 105.729C88.772 111.219 77.6226 114 63.5006 114ZM61.7286 112.55L62.7567 112.566H63.5262C99.9789 112.566 106.112 94.2649 107.057 86.3535C108.622 73.2118 102.808 58.736 89.2765 42.1063C79.2509 29.7811 68.2037 29.945 64.053 30.0061C63.4942 30.0061 63.0536 30.0061 62.7184 30.0061C62.528 29.9951 62.3372 29.9951 62.1469 30.0061H61.7158C61.4764 30.0061 61.1539 30.0061 60.758 29.9836C45.4962 29.421 37.7439 38.9848 35.1896 42.1127C21.6775 58.7392 15.8633 73.215 17.4278 86.3568C18.8742 98.4826 31.1571 112.553 61.007 112.553H61.7286V112.55Z" fill="#100E3F"/>
<path d="M63.3093 17.787H61.1797V24.9397H63.3093V17.787Z" fill="#100E3F"/>
<path d="M62.2445 18.4524C64.5669 18.4524 66.4495 16.5569 66.4495 14.2186C66.4495 11.8804 64.5669 9.98486 62.2445 9.98486C59.9222 9.98486 58.0396 11.8804 58.0396 14.2186C58.0396 16.5569 59.9222 18.4524 62.2445 18.4524Z" fill="#E533B5"/>
<path d="M62.2445 19.5229C61.2021 19.5217 60.1834 19.2092 59.3173 18.6251C58.4512 18.041 57.7765 17.2114 57.3786 16.2413C56.9807 15.2712 56.8774 14.2041 57.0818 13.1749C57.2862 12.1457 57.789 11.2006 58.5268 10.4591C59.2646 9.71759 60.2042 9.21299 61.2268 9.00908C62.2494 8.80518 63.3091 8.91112 64.2718 9.31351C65.2346 9.7159 66.0573 10.3967 66.6359 11.2698C67.2144 12.1429 67.5229 13.1691 67.5223 14.2187C67.5206 15.6266 66.9637 16.9762 65.974 17.9709C64.9843 18.9655 63.6429 19.5238 62.2445 19.5229ZM62.2445 11.0554C61.623 11.0547 61.0152 11.2397 60.4982 11.5869C59.9811 11.9341 59.5779 12.4279 59.3396 13.0059C59.1013 13.5839 59.0387 14.22 59.1595 14.8338C59.2804 15.4476 59.5794 16.0116 60.0186 16.4543C60.4579 16.897 61.0177 17.1986 61.6272 17.3209C62.2367 17.4432 62.8686 17.3808 63.4429 17.1414C64.0171 16.9021 64.508 16.4967 64.8534 15.9764C65.1987 15.4561 65.3831 14.8444 65.3831 14.2187C65.3831 13.3803 65.0525 12.5762 64.464 11.983C63.8755 11.3899 63.0772 11.0562 62.2445 11.0554Z" fill="#100E3F"/>
<path d="M28.9943 99.0838C23.806 99.0838 19.5116 96.2581 19.4541 96.2163L19.9841 95.7051C20.0576 95.7566 27.449 100.614 34.253 97.2064C41.0569 93.7988 40.827 79.0979 40.8206 78.9501H41.6508C41.6638 81.6308 41.4243 84.3067 40.9356 86.9418C39.8564 92.6029 37.7427 96.2645 34.6936 97.7851C32.9202 98.659 30.9686 99.1037 28.9943 99.0838Z" fill="#100E3F"/>
<path d="M95.3592 99.0838C100.548 99.0838 104.839 96.2581 104.896 96.2163L104.366 95.7051C104.293 95.7566 96.9014 100.614 90.0974 97.2064C83.2935 93.7988 83.5265 79.0979 83.5297 78.9501H82.6996C82.6884 81.6307 82.9279 84.3064 83.4148 86.9418C84.4972 92.6029 86.6076 96.2645 89.66 97.785C91.4332 98.6593 93.3849 99.104 95.3592 99.0838Z" fill="#100E3F"/>
<path d="M62.5639 29.7714H61.9253V54.6115H62.5639V29.7714Z" fill="#100E3F"/>
<path d="M62.2444 55.3283C62.2444 55.3283 96.4079 54.8011 97.4967 70.4857C96.7815 84.2157 77.3817 76.1532 62.2444 76.1532C47.1071 76.1532 27.7074 84.2157 26.9922 70.4857C28.0682 54.8011 62.2444 55.3283 62.2444 55.3283Z" fill="#100E3F"/>
<path d="M86.8552 79.2169C83.4005 79.2169 79.4318 78.6671 75.3609 78.1013C70.9739 77.497 66.4369 76.8701 62.2511 76.8701C58.0653 76.8701 53.5282 77.5131 49.1412 78.1013C40.9133 79.2426 33.1387 80.3163 29.0966 76.9505C27.382 75.5232 26.4369 73.3597 26.29 70.5211V70.4343C26.753 63.6673 33.1834 58.7874 44.882 56.3217C53.3973 54.5247 61.8967 54.6018 62.2511 54.6083C62.6055 54.6147 71.1081 54.5279 79.6202 56.3217C91.3188 58.7874 97.7492 63.6673 98.2121 70.4343V70.5211C98.0653 73.3564 97.1202 75.5199 95.4056 76.9505C93.3622 78.6479 90.3737 79.2136 86.8552 79.2169ZM62.2447 75.4396C66.5263 75.4396 71.1144 76.0825 75.5461 76.6869C83.4612 77.7799 90.9324 78.815 94.4957 75.8478C95.9005 74.6777 96.6508 72.9257 96.7849 70.4921C95.7089 55.7045 62.5863 56.0452 62.2575 56.042H62.2351C61.9158 56.042 28.7805 55.7045 27.7045 70.4921C27.8386 72.9257 28.5889 74.6713 29.9937 75.8478C33.557 78.815 41.0282 77.7767 48.9433 76.6869C53.3782 76.0729 57.9631 75.4396 62.2447 75.4396Z" fill="#100E3F"/>
<path d="M43.134 74.0765C46.2111 74.0765 48.7055 71.565 48.7055 68.4668C48.7055 65.3687 46.2111 62.8572 43.134 62.8572C40.057 62.8572 37.5625 65.3687 37.5625 68.4668C37.5625 71.565 40.057 74.0765 43.134 74.0765Z" fill="#8EF4FD"/>
<path d="M79.7703 74.0765C82.8473 74.0765 85.3418 71.565 85.3418 68.4668C85.3418 65.3687 82.8473 62.8572 79.7703 62.8572C76.6932 62.8572 74.1987 65.3687 74.1987 68.4668C74.1987 71.565 76.6932 74.0765 79.7703 74.0765Z" fill="#8EF4FD"/>
<path d="M65.0367 35.8183C65.5639 35.8183 65.9914 35.3879 65.9914 34.8571C65.9914 34.3262 65.5639 33.8959 65.0367 33.8959C64.5095 33.8959 64.082 34.3262 64.082 34.8571C64.082 35.3879 64.5095 35.8183 65.0367 35.8183Z" fill="#B9B9B9"/>
<path d="M65.0367 51.4225C65.5639 51.4225 65.9914 50.9922 65.9914 50.4613C65.9914 49.9305 65.5639 49.5001 65.0367 49.5001C64.5095 49.5001 64.082 49.9305 64.082 50.4613C64.082 50.9922 64.5095 51.4225 65.0367 51.4225Z" fill="#B9B9B9"/>
<path d="M59.5992 35.8183C60.1264 35.8183 60.5538 35.3879 60.5538 34.8571C60.5538 34.3262 60.1264 33.8959 59.5992 33.8959C59.0719 33.8959 58.6445 34.3262 58.6445 34.8571C58.6445 35.3879 59.0719 35.8183 59.5992 35.8183Z" fill="#B9B9B9"/>
<path d="M65.0367 39.7177C65.5639 39.7177 65.9914 39.2873 65.9914 38.7565C65.9914 38.2256 65.5639 37.7953 65.0367 37.7953C64.5095 37.7953 64.082 38.2256 64.082 38.7565C64.082 39.2873 64.5095 39.7177 65.0367 39.7177Z" fill="#B9B9B9"/>
<path d="M59.5992 51.4225C60.1264 51.4225 60.5538 50.9922 60.5538 50.4613C60.5538 49.9305 60.1264 49.5001 59.5992 49.5001C59.0719 49.5001 58.6445 49.9305 58.6445 50.4613C58.6445 50.9922 59.0719 51.4225 59.5992 51.4225Z" fill="#B9B9B9"/>
<path d="M59.5992 39.7177C60.1264 39.7177 60.5538 39.2873 60.5538 38.7565C60.5538 38.2256 60.1264 37.7953 59.5992 37.7953C59.0719 37.7953 58.6445 38.2256 58.6445 38.7565C58.6445 39.2873 59.0719 39.7177 59.5992 39.7177Z" fill="#B9B9B9"/>
<path d="M65.0367 43.6204C65.5639 43.6204 65.9914 43.19 65.9914 42.6592C65.9914 42.1283 65.5639 41.698 65.0367 41.698C64.5095 41.698 64.082 42.1283 64.082 42.6592C64.082 43.19 64.5095 43.6204 65.0367 43.6204Z" fill="#B9B9B9"/>
<path d="M59.5992 43.6204C60.1264 43.6204 60.5538 43.19 60.5538 42.6592C60.5538 42.1283 60.1264 41.698 59.5992 41.698C59.0719 41.698 58.6445 42.1283 58.6445 42.6592C58.6445 43.19 59.0719 43.6204 59.5992 43.6204Z" fill="#B9B9B9"/>
<path d="M65.0367 47.5231C65.5639 47.5231 65.9914 47.0928 65.9914 46.5619C65.9914 46.031 65.5639 45.6007 65.0367 45.6007C64.5095 45.6007 64.082 46.031 64.082 46.5619C64.082 47.0928 64.5095 47.5231 65.0367 47.5231Z" fill="#B9B9B9"/>
<path d="M59.5992 47.5231C60.1264 47.5231 60.5538 47.0928 60.5538 46.5619C60.5538 46.031 60.1264 45.6007 59.5992 45.6007C59.0719 45.6007 58.6445 46.031 58.6445 46.5619C58.6445 47.0928 59.0719 47.5231 59.5992 47.5231Z" fill="#B9B9B9"/>
<path d="M38.838 83.1484C39.3652 83.1484 39.7926 82.7181 39.7926 82.1872C39.7926 81.6564 39.3652 81.226 38.838 81.226C38.3107 81.226 37.8833 81.6564 37.8833 82.1872C37.8833 82.7181 38.3107 83.1484 38.838 83.1484Z" fill="#B9B9B9"/>
<path d="M38.5328 87.6394C39.06 87.6394 39.4874 87.2091 39.4874 86.6782C39.4874 86.1474 39.06 85.717 38.5328 85.717C38.0055 85.717 37.5781 86.1474 37.5781 86.6782C37.5781 87.2091 38.0055 87.6394 38.5328 87.6394Z" fill="#B9B9B9"/>
<path d="M36.2633 92.1303C36.7905 92.1303 37.2179 91.7 37.2179 91.1691C37.2179 90.6382 36.7905 90.2079 36.2633 90.2079C35.736 90.2079 35.3086 90.6382 35.3086 91.1691C35.3086 91.7 35.736 92.1303 36.2633 92.1303Z" fill="#B9B9B9"/>
<path d="M33.4273 95.554C33.9546 95.554 34.382 95.1236 34.382 94.5928C34.382 94.0619 33.9546 93.6316 33.4273 93.6316C32.9001 93.6316 32.4727 94.0619 32.4727 94.5928C32.4727 95.1236 32.9001 95.554 33.4273 95.554Z" fill="#B9B9B9"/>
<path d="M28.5567 96.5152C29.084 96.5152 29.5114 96.0849 29.5114 95.554C29.5114 95.0231 29.084 94.5928 28.5567 94.5928C28.0295 94.5928 27.6021 95.0231 27.6021 95.554C27.6021 96.0849 28.0295 96.5152 28.5567 96.5152Z" fill="#B9B9B9"/>
<path d="M23.2008 95.554C23.728 95.554 24.1554 95.1236 24.1554 94.5928C24.1554 94.0619 23.728 93.6316 23.2008 93.6316C22.6735 93.6316 22.2461 94.0619 22.2461 94.5928C22.2461 95.1236 22.6735 95.554 23.2008 95.554Z" fill="#B9B9B9"/>
<path d="M86.2003 82.933C86.7275 82.933 87.1549 82.5027 87.1549 81.9718C87.1549 81.441 86.7275 81.0106 86.2003 81.0106C85.673 81.0106 85.2456 81.441 85.2456 81.9718C85.2456 82.5027 85.673 82.933 86.2003 82.933Z" fill="#B9B9B9"/>
<path d="M86.5103 87.424C87.0376 87.424 87.465 86.9937 87.465 86.4628C87.465 85.932 87.0376 85.5016 86.5103 85.5016C85.9831 85.5016 85.5557 85.932 85.5557 86.4628C85.5557 86.9937 85.9831 87.424 86.5103 87.424Z" fill="#B9B9B9"/>
<path d="M88.775 91.915C89.3022 91.915 89.7296 91.4846 89.7296 90.9537C89.7296 90.4229 89.3022 89.9926 88.775 89.9926C88.2477 89.9926 87.8203 90.4229 87.8203 90.9537C87.8203 91.4846 88.2477 91.915 88.775 91.915Z" fill="#B9B9B9"/>
<path d="M91.6158 95.3386C92.143 95.3386 92.5704 94.9083 92.5704 94.3774C92.5704 93.8466 92.143 93.4162 91.6158 93.4162C91.0885 93.4162 90.6611 93.8466 90.6611 94.3774C90.6611 94.9083 91.0885 95.3386 91.6158 95.3386Z" fill="#B9B9B9"/>
<path d="M96.4815 96.2998C97.0088 96.2998 97.4362 95.8695 97.4362 95.3386C97.4362 94.8078 97.0088 94.3774 96.4815 94.3774C95.9543 94.3774 95.5269 94.8078 95.5269 95.3386C95.5269 95.8695 95.9543 96.2998 96.4815 96.2998Z" fill="#B9B9B9"/>
<path d="M101.842 95.3386C102.37 95.3386 102.797 94.9083 102.797 94.3774C102.797 93.8466 102.37 93.4162 101.842 93.4162C101.315 93.4162 100.888 93.8466 100.888 94.3774C100.888 94.9083 101.315 95.3386 101.842 95.3386Z" fill="#B9B9B9"/>
<path d="M73.6239 107.988C76.4336 107.455 87.8193 112.569 88.9911 97.2899C90.198 81.5893 70.9515 73.2375 62.085 73.2375C52.5735 73.2375 34.0486 81.3675 35.1788 97.2899C36.2644 112.569 47.1393 107.394 50.5492 107.988C52.3149 108.294 55.1469 110.348 62.085 110.596C67.8002 110.602 71.2261 108.439 73.6239 107.988Z" fill="#B9B9B9" stroke="#100E3F" stroke-width="2" stroke-miterlimit="10"/>
<path d="M61.9234 88.054C60.1386 88.054 59.2223 86.6556 58.5422 85.0965C58.3111 84.5726 57.9328 84.1282 57.454 83.818C56.9752 83.5078 56.4167 83.3455 55.8474 83.3509C55.6526 83.3509 55.4675 83.3509 55.2919 83.3509C53.2708 83.293 51.9426 81.4832 52.7376 79.8469C53.0615 79.1537 53.5376 78.5438 54.13 78.0632C54.7224 77.5826 55.4156 77.2438 56.1571 77.0726C59.9415 76.0728 63.9181 76.0728 67.7025 77.0726C68.444 77.2438 69.1372 77.5826 69.7296 78.0632C70.322 78.5438 70.7981 79.1537 71.122 79.8469C71.9106 81.4832 70.5824 83.293 68.5677 83.3509C68.3921 83.3509 68.2069 83.3509 68.0122 83.3509C67.4428 83.3455 66.8844 83.5078 66.4055 83.818C65.9267 84.1282 65.5485 84.5726 65.3174 85.0965C64.6373 86.6556 63.721 88.054 61.9362 88.054" fill="#100E3F"/>
<path d="M41.5626 92.4711C41.5626 92.4711 41.47 96.4573 48.7401 98.4022C56.0102 100.347 62.0958 95.1714 62.0958 95.1714C62.0958 95.1714 68.1622 100.36 75.4419 98.4151C82.7216 96.4702 82.6194 92.4839 82.6194 92.4839" stroke="#100E3F" stroke-width="2" stroke-linecap="round" stroke-linejoin="round"/>
<path d="M51.657 107.709C51.5911 107.683 51.5313 107.643 51.4813 107.593C51.4312 107.542 51.3921 107.482 51.3663 107.416C51.3406 107.349 51.3287 107.278 51.3314 107.207C51.3342 107.136 51.3516 107.066 51.3824 107.002C52.1966 105.346 55.2617 100.18 61.8422 100.19C68.8345 100.19 72.1423 106.095 72.8096 107.448C72.827 107.484 72.837 107.522 72.839 107.561C72.841 107.601 72.8349 107.64 72.8211 107.677C72.8073 107.714 72.7861 107.747 72.7589 107.775C72.7316 107.803 72.6989 107.826 72.6628 107.841C71.4718 108.345 66.5964 110.281 62.0465 110.091C57.6755 109.917 53.1545 108.291 51.657 107.709Z" fill="#CCCCCB"/>
<path d="M50.9688 108.03C51.5754 107.497 52.1756 106.134 52.3225 105.458L50.9688 108.03Z" fill="#CCCCCB"/>
<path d="M50.9688 108.03C51.5754 107.497 52.1756 106.134 52.3225 105.458" stroke="#100E3F" stroke-width="2" stroke-miterlimit="10" stroke-linecap="round"/>
<path d="M72.8386 108.03C72.232 107.497 71.6317 106.134 71.4849 105.458L72.8386 108.03Z" fill="#CCCCCB"/>
<path d="M72.8386 108.03C72.232 107.497 71.6317 106.134 71.4849 105.458" stroke="#100E3F" stroke-width="2" stroke-miterlimit="10" stroke-linecap="round"/>
<path d="M59.2817 99.6399C59.2817 99.6399 61.8807 97.9135 64.2275 99.6399H59.2817Z" fill="#B9B9B9"/>
<path d="M59.2817 99.6399C59.2817 99.6399 61.8807 97.9135 64.2275 99.6399" stroke="#100E3F" stroke-width="2" stroke-linecap="round" stroke-linejoin="round"/>
<path d="M50.8031 29.8454C50.8031 29.8454 43.9001 23.416 39.7239 24.3129C35.5476 25.2098 7.84648 35.4325 3.20727 40.9779C1.11277 43.4757 -0.726314 49.8891 1.47994 54.1068C3.6862 58.3245 12.7124 78.2171 15.3337 79.5737C17.955 80.9303 20.388 66.313 23.4627 58.1734C26.5374 50.0337 27.1313 43.8904 31.0202 40.2642C34.9091 36.6381 50.8031 29.8454 50.8031 29.8454Z" fill="#100E3F" stroke="#100E3F" stroke-miterlimit="10"/>
<path d="M30.5367 36.4815C31.7608 35.8009 32.3543 34.5221 31.8625 33.6254C31.3706 32.7286 29.9795 32.5534 28.7555 33.234C27.5314 33.9147 26.9378 35.1934 27.4297 36.0902C27.9216 36.9869 29.3126 37.1621 30.5367 36.4815Z" fill="#EEEEEE"/>
<path d="M3.21177 44.0223C2.51573 45.5267 2.31139 47.0955 2.76797 50.8503C2.85756 51.5122 3.00392 52.1651 3.20539 52.8016C5.62237 59.1314 7.39121 62.1404 7.39121 62.1404C7.39121 62.1404 14.9168 78.3135 16.6505 78.5C16.7974 78.5182 16.9466 78.5018 17.0862 78.4521C17.2258 78.4025 17.352 78.3209 17.4551 78.2139C17.497 78.1737 17.5304 78.1253 17.5532 78.0717C17.576 78.0181 17.5877 77.9604 17.5877 77.9021C17.5877 77.8438 17.576 77.7861 17.5532 77.7325C17.5304 77.6789 17.497 77.6305 17.4551 77.5902C15.8586 76.1179 11.7782 67.6954 9.59428 62.1404C7.84779 57.6912 6.40143 48.9311 5.46912 44.2601C5.20411 42.926 3.88227 42.5628 3.21177 44.0223Z" fill="#EEEEEE"/>
<path d="M74.1987 30.5879C74.1987 30.5879 81.1017 24.1585 85.2811 25.0554C89.4605 25.9523 117.155 36.1751 121.801 41.7173C123.895 44.2183 125.735 50.6316 123.528 54.8493C121.322 59.067 112.296 78.9597 109.674 80.3163C107.053 81.6729 104.62 67.0556 101.545 58.9159C98.4708 50.7763 97.8769 44.633 93.988 41.0068C90.0991 37.3806 74.1987 30.5879 74.1987 30.5879Z" fill="#100E3F" stroke="#100E3F" stroke-miterlimit="10"/>
<path d="M98.632 36.83C99.1239 35.9332 98.5303 34.6545 97.3062 33.9738C96.0821 33.2932 94.6911 33.4684 94.1992 34.3652C93.7073 35.2619 94.3009 36.5407 95.525 37.2213C96.7491 37.9019 98.1401 37.7267 98.632 36.83Z" fill="#EEEEEE"/>
<path d="M122.848 44.7648C123.541 46.2693 123.749 47.8381 123.292 51.5896C123.203 52.2527 123.056 52.9067 122.855 53.5442C120.438 59.8739 118.669 62.8829 118.669 62.8829C118.669 62.8829 111.143 79.0529 109.409 79.2426C109.263 79.2607 109.113 79.2444 108.974 79.1947C108.834 79.1451 108.708 79.0635 108.605 78.9565C108.563 78.916 108.53 78.8675 108.508 78.814C108.485 78.7604 108.474 78.7028 108.474 78.6446C108.474 78.5864 108.485 78.5289 108.508 78.4753C108.53 78.4217 108.563 78.3733 108.605 78.3328C110.201 76.8605 114.285 68.4379 116.469 62.8829C118.215 58.4338 119.662 49.6737 120.594 45.0027C120.843 43.6686 122.178 43.3053 122.848 44.7648Z" fill="#EEEEEE"/>
<path d="M23.4247 59.5654L21.0875 67.3707L19.0122 74.8031C19.0122 74.8031 17.949 77.6963 17.735 78.0949C17.5873 78.3463 17.4541 78.6061 17.3359 78.8729C17.7606 78.7683 18.1524 78.5583 18.4758 78.2621C18.8621 77.8378 20.002 74.7645 20.002 74.7645L22.1156 67.2903L23.728 59.5493C23.728 59.5493 23.5045 59.4143 23.4247 59.5654Z" fill="#CCCCCB"/>
<path d="M101.904 61.0955L104.238 68.9008L106.314 76.3333C106.314 76.3333 107.377 79.2265 107.61 79.6251C107.758 79.8765 107.891 80.1363 108.009 80.4031C107.584 80.299 107.191 80.0902 106.866 79.7955C106.48 79.3679 105.343 76.2947 105.343 76.2947L103.229 68.8108L101.633 61.0698C101.633 61.0698 101.828 60.9444 101.904 61.0955Z" fill="#CCCCCB"/>
<path d="M59.3261 90.8091C59.774 90.8091 60.1371 90.4435 60.1371 89.9926C60.1371 89.5416 59.774 89.176 59.3261 89.176C58.8782 89.176 58.5151 89.5416 58.5151 89.9926C58.5151 90.4435 58.8782 90.8091 59.3261 90.8091Z" fill="#EEEEEE"/>
<path d="M59.3232 93.5641C59.7711 93.5641 60.1342 93.1985 60.1342 92.7476C60.1342 92.2966 59.7711 91.931 59.3232 91.931C58.8753 91.931 58.5122 92.2966 58.5122 92.7476C58.5122 93.1985 58.8753 93.5641 59.3232 93.5641Z" fill="#EEEEEE"/>
<path d="M64.8691 90.8091C65.317 90.8091 65.6801 90.4435 65.6801 89.9926C65.6801 89.5416 65.317 89.176 64.8691 89.176C64.4212 89.176 64.0581 89.5416 64.0581 89.9926C64.0581 90.4435 64.4212 90.8091 64.8691 90.8091Z" fill="#EEEEEE"/>
<path d="M67.4829 91.9856C67.9308 91.9856 68.2938 91.62 68.2938 91.1691C68.2938 90.7181 67.9308 90.3525 67.4829 90.3525C67.035 90.3525 66.6719 90.7181 66.6719 91.1691C66.6719 91.62 67.035 91.9856 67.4829 91.9856Z" fill="#EEEEEE"/>
<path d="M56.8071 91.9857C57.255 91.9857 57.6181 91.6201 57.6181 91.1691C57.6181 90.7182 57.255 90.3526 56.8071 90.3526C56.3592 90.3526 55.9961 90.7182 55.9961 91.1691C55.9961 91.6201 56.3592 91.9857 56.8071 91.9857Z" fill="#EEEEEE"/>
<path d="M64.8627 93.5641C65.3106 93.5641 65.6737 93.1985 65.6737 92.7476C65.6737 92.2966 65.3106 91.931 64.8627 91.931C64.4148 91.931 64.0518 92.2966 64.0518 92.7476C64.0518 93.1985 64.4148 93.5641 64.8627 93.5641Z" fill="#EEEEEE"/>
<path d="M53.11 11.6726C50.3024 10.7982 47.5129 9.87025 44.7415 8.88869C44.6405 8.86062 44.5349 8.85286 44.4309 8.86586C44.3269 8.87886 44.2264 8.91236 44.1352 8.96445C44.0441 9.01654 43.964 9.0862 43.8995 9.16945C43.8351 9.25271 43.7876 9.34792 43.7597 9.44966C43.7318 9.5514 43.7241 9.65768 43.737 9.76242C43.7499 9.86716 43.7832 9.96831 43.835 10.0601C43.8867 10.1519 43.9559 10.2325 44.0386 10.2974C44.1212 10.3623 44.2158 10.4101 44.3169 10.4382C47.084 11.4176 49.8735 12.3456 52.6853 13.2221C53.6687 13.5436 54.0902 11.978 53.11 11.6726Z" fill="#D3ECF8"/>
<path d="M56.7803 6.47116C55.7929 5.33826 54.58 4.427 53.2202 3.79652C53.0373 3.68909 52.8195 3.65922 52.6148 3.71348C52.41 3.76774 52.235 3.90168 52.1283 4.08584C52.0216 4.27 51.9919 4.4893 52.0458 4.69548C52.0997 4.90166 52.2327 5.07785 52.4156 5.18527C53.0548 5.47828 53.6616 5.83817 54.226 6.25899L54.3154 6.32971C54.4367 6.41972 54.2356 6.2622 54.3154 6.32971L54.5165 6.49044C54.6474 6.60296 54.7752 6.71547 54.8997 6.8312C55.1645 7.07794 55.416 7.3387 55.6532 7.61238C55.8038 7.76197 56.0068 7.84585 56.2183 7.84585C56.4299 7.84585 56.6329 7.76197 56.7835 7.61238C56.9283 7.45884 57.0091 7.25515 57.0091 7.04338C57.0091 6.8316 56.9283 6.62791 56.7835 6.47437L56.7803 6.47116Z" fill="#D3ECF8"/>
<path d="M64.1081 5.76397C64.2268 4.11339 64.2577 2.45759 64.2007 0.803677C64.2007 0.590529 64.1166 0.38611 63.9669 0.235392C63.8173 0.0846729 63.6142 0 63.4025 0C63.1908 0 62.9878 0.0846729 62.8381 0.235392C62.6884 0.38611 62.6043 0.590529 62.6043 0.803677V1.36304C62.6043 1.57619 62.6884 1.7806 62.8381 1.93132C62.9878 2.08204 63.1908 2.16671 63.4025 2.16671C63.6142 2.16671 63.8173 2.08204 63.9669 1.93132C64.1166 1.7806 64.2007 1.57619 64.2007 1.36304V0.803677H62.6043C62.6613 2.45759 62.6304 4.11339 62.5117 5.76397C62.5117 5.97712 62.5958 6.18154 62.7455 6.33226C62.8952 6.48298 63.0982 6.56765 63.3099 6.56765C63.5198 6.56197 63.7196 6.47547 63.8681 6.32597C64.0166 6.17646 64.1025 5.97533 64.1081 5.76397Z" fill="#D3ECF8"/>
<path d="M69.5564 8.80511L76.9255 4.8896C77.8355 4.40418 77.0309 3.01864 76.1209 3.50084L68.7518 7.40993C67.8418 7.89213 68.6496 9.28089 69.5564 8.79868V8.80511Z" fill="#D3ECF8"/>
<path d="M71.3539 13.5789L79.7958 12.936C80.0057 12.9303 80.2055 12.8438 80.354 12.6943C80.5025 12.5448 80.5884 12.3436 80.594 12.1323C80.5923 11.9197 80.5077 11.7162 80.3584 11.5659C80.209 11.4155 80.007 11.3303 79.7958 11.3286L71.3539 11.9716C71.1437 11.9765 70.9435 12.0627 70.7948 12.2124C70.6462 12.362 70.5605 12.5636 70.5557 12.7752C70.5565 12.9881 70.6409 13.192 70.7904 13.3426C70.9399 13.4931 71.1424 13.5781 71.3539 13.5789Z" fill="#D3ECF8"/>
</g>
<defs>
<clipPath id="clip0_424_6966">
<rect width="125" height="114" fill="white"/>
</clipPath>
</defs>
</svg>
