<svg width="120" height="111" viewBox="0 0 120 111" fill="none" xmlns="http://www.w3.org/2000/svg">
<g clip-path="url(#clip0_6_2077)">
<path d="M80.5359 33.0038L93.4616 42.4285L97.7313 55.6188L87.5183 43.089L80.5359 33.0038Z" fill="#B9B9B9"/>
<path d="M41.4102 32.0867L27.8684 40.5317L23.3933 52.3479L34.0968 41.1233L41.4102 32.0867Z" fill="#B9B9B9"/>
<path d="M52.3342 28.4058C52.3342 26.1302 55.6568 24.2834 59.7549 24.2834C63.853 24.2834 67.1756 26.1302 67.1756 28.4058" fill="#EEEEEE"/>
<path d="M67.856 28.4056H66.492C66.492 26.5495 63.4085 24.9813 59.7487 24.9813C56.089 24.9813 53.0054 26.5463 53.0054 28.4056H51.6414C51.6414 25.7043 55.2001 23.5884 59.7426 23.5884C64.2851 23.5884 67.856 25.7043 67.856 28.4056Z" fill="#100E3F"/>
<path d="M59.2583 110.283C31.2706 110.509 17.643 97.6752 16.0583 84.1688C14.4736 70.6624 20.8154 56.0917 33.2751 40.5601C44.3372 26.7688 56.5916 28.5405 59.2491 28.5154C59.7548 28.5154 59.8621 28.4904 60.2637 28.5154C62.915 28.697 75.1755 26.7688 86.2345 40.5601C98.6943 56.0917 105.039 70.6686 103.451 84.1688C101.864 97.669 89.9556 110.509 60.2238 110.299L59.2583 110.283Z" fill="#EEEEEE"/>
<path d="M60.9626 111H60.2239L59.2492 110.981H58.5872C45.8331 110.981 35.0531 108.208 27.3718 102.946C20.4998 98.2511 16.2362 91.5965 15.3749 84.2501C13.8239 71.0567 19.5036 56.6206 32.7419 40.1155C43.0837 27.2289 54.6086 27.6577 58.3849 27.7985C58.7281 27.7985 59.0132 27.8204 59.2308 27.8204H59.617C59.8437 27.8067 60.0709 27.8067 60.2975 27.8204C60.5611 27.8204 60.9626 27.8204 61.4653 27.8204C65.64 27.7641 76.7113 27.5951 86.7496 40.1124C99.9879 56.6143 105.668 71.0504 104.117 84.247C103.222 91.8625 99.2983 98.3325 92.7757 102.946C85.2232 108.292 74.5197 111 60.9626 111ZM59.2615 109.588L60.2485 109.604H60.9872C95.9818 109.604 101.87 91.7843 102.777 84.0811C104.279 71.2852 98.6975 57.1903 85.7075 40.9982C76.0829 28.9974 65.4776 29.157 61.4929 29.2165C60.9565 29.2165 60.5335 29.2165 60.2117 29.2165C60.0289 29.2058 59.8457 29.2058 59.663 29.2165H59.2492C59.0193 29.2165 58.7098 29.2165 58.3297 29.1946C43.6783 28.6468 36.2362 37.9589 33.7841 41.0045C20.8124 57.1934 15.2308 71.2883 16.7328 84.0842C18.1213 95.891 29.9128 109.591 58.5688 109.591H59.2615V109.588Z" fill="#100E3F"/>
<path d="M60.7787 17.3188H58.7342V24.2833H60.7787V17.3188Z" fill="#100E3F"/>
<path d="M59.7549 17.9669C61.9844 17.9669 63.7917 16.1212 63.7917 13.8445C63.7917 11.5678 61.9844 9.72217 59.7549 9.72217C57.5255 9.72217 55.7181 11.5678 55.7181 13.8445C55.7181 16.1212 57.5255 17.9669 59.7549 17.9669Z" fill="#E533B5"/>
<path d="M59.7548 19.0091C58.754 19.0079 57.7761 18.7036 56.9446 18.1349C56.1132 17.5662 55.4655 16.7584 55.0835 15.8139C54.7015 14.8693 54.6024 13.8302 54.7986 12.8281C54.9948 11.826 55.4775 10.9057 56.1858 10.1838C56.8941 9.46178 57.7961 8.97047 58.7778 8.77192C59.7594 8.57338 60.7767 8.67654 61.701 9.06834C62.6253 9.46014 63.4151 10.123 63.9705 10.9731C64.5259 11.8232 64.822 12.8224 64.8214 13.8444C64.8198 15.2153 64.2852 16.5294 63.3351 17.4979C62.385 18.4664 61.0972 19.0099 59.7548 19.0091ZM59.7548 10.7644C59.1581 10.7638 58.5747 10.9439 58.0783 11.2819C57.5819 11.62 57.1948 12.1008 56.9661 12.6636C56.7373 13.2263 56.6771 13.8457 56.7932 14.4434C56.9092 15.041 57.1962 15.5901 57.6179 16.0212C58.0396 16.4523 58.577 16.7459 59.1621 16.865C59.7473 16.9841 60.3539 16.9233 60.9052 16.6903C61.4565 16.4573 61.9277 16.0625 62.2593 15.5559C62.5908 15.0493 62.7678 14.4537 62.7678 13.8444C62.7678 13.0281 62.4504 12.2451 61.8855 11.6676C61.3205 11.0901 60.5541 10.7652 59.7548 10.7644Z" fill="#100E3F"/>
<path d="M27.8343 96.4761C22.8534 96.4761 18.7308 93.7247 18.6756 93.684L19.1844 93.1863C19.2549 93.2364 26.3507 97.966 32.8825 94.6481C39.4143 91.3302 39.1936 77.0162 39.1875 76.8722H39.9844C39.9969 79.4823 39.767 82.0878 39.2979 84.6536C38.2618 90.1658 36.2327 93.731 33.3055 95.2115C31.6031 96.0624 29.7296 96.4954 27.8343 96.4761Z" fill="#100E3F"/>
<path d="M91.5466 96.4761C96.5274 96.4761 100.647 93.7247 100.702 93.684L100.193 93.1863C100.123 93.2364 93.0271 97.966 86.4953 94.6481C79.9634 91.3302 80.1872 77.0162 80.1903 76.8722H79.3933C79.3826 79.4823 79.6125 82.0876 80.0799 84.6536C81.119 90.1658 83.1451 93.731 86.0753 95.2115C87.7776 96.0627 89.6513 96.4958 91.5466 96.4761Z" fill="#100E3F"/>
<path d="M60.061 28.9878H59.448V53.1742H60.061V28.9878Z" fill="#100E3F"/>
<path d="M59.755 53.8724C59.755 53.8724 92.552 53.3591 93.5972 68.6309C92.9106 81.9996 74.2868 74.1493 59.755 74.1493C45.2232 74.1493 26.5995 81.9996 25.9129 68.6309C26.9458 53.3591 59.755 53.8724 59.755 53.8724Z" fill="#100E3F"/>
<path d="M83.3806 77.1324C80.0641 77.1324 76.2542 76.5971 72.3461 76.0462C68.1346 75.4577 63.7791 74.8474 59.7607 74.8474C55.7423 74.8474 51.3867 75.4734 47.1752 76.0462C39.2764 77.1574 31.8128 78.2029 27.9323 74.9256C26.2863 73.5359 25.3791 71.4293 25.2381 68.6654V68.5809C25.6825 61.992 31.8557 57.2405 43.0863 54.8397C51.2611 53.09 59.4205 53.1651 59.7607 53.1714C60.1009 53.1776 68.2634 53.0931 76.435 54.8397C87.6657 57.2405 93.8389 61.992 94.2833 68.5809V68.6654C94.1423 71.4262 93.235 73.5327 91.589 74.9256C89.6273 76.5783 86.7584 77.1292 83.3806 77.1324ZM59.7546 73.4545C63.8649 73.4545 68.2695 74.0805 72.5239 74.669C80.1224 75.7332 87.2948 76.7411 90.7155 73.852C92.0641 72.7126 92.7844 71.0067 92.9132 68.6372C91.8802 54.2387 60.0825 54.5705 59.7668 54.5674H59.7454C59.4388 54.5674 27.6289 54.2387 26.5959 68.6372C26.7247 71.0067 27.445 72.7064 28.7936 73.852C32.2143 76.7411 39.3867 75.7301 46.9852 74.669C51.2427 74.0711 55.6442 73.4545 59.7546 73.4545Z" fill="#100E3F"/>
<path d="M62.434 34.8756C62.9401 34.8756 63.3504 34.4566 63.3504 33.9397C63.3504 33.4228 62.9401 33.0038 62.434 33.0038C61.9278 33.0038 61.5175 33.4228 61.5175 33.9397C61.5175 34.4566 61.9278 34.8756 62.434 34.8756Z" fill="#B9B9B9"/>
<path d="M62.434 50.0694C62.9401 50.0694 63.3504 49.6504 63.3504 49.1335C63.3504 48.6167 62.9401 48.1976 62.434 48.1976C61.9278 48.1976 61.5175 48.6167 61.5175 49.1335C61.5175 49.6504 61.9278 50.0694 62.434 50.0694Z" fill="#B9B9B9"/>
<path d="M57.2166 34.8756C57.7227 34.8756 58.133 34.4566 58.133 33.9397C58.133 33.4228 57.7227 33.0038 57.2166 33.0038C56.7104 33.0038 56.3001 33.4228 56.3001 33.9397C56.3001 34.4566 56.7104 34.8756 57.2166 34.8756Z" fill="#B9B9B9"/>
<path d="M62.434 38.6725C62.9401 38.6725 63.3504 38.2534 63.3504 37.7366C63.3504 37.2197 62.9401 36.8007 62.434 36.8007C61.9278 36.8007 61.5175 37.2197 61.5175 37.7366C61.5175 38.2534 61.9278 38.6725 62.434 38.6725Z" fill="#B9B9B9"/>
<path d="M57.2166 50.0694C57.7227 50.0694 58.133 49.6504 58.133 49.1335C58.133 48.6167 57.7227 48.1976 57.2166 48.1976C56.7104 48.1976 56.3001 48.6167 56.3001 49.1335C56.3001 49.6504 56.7104 50.0694 57.2166 50.0694Z" fill="#B9B9B9"/>
<path d="M57.2166 38.6725C57.7227 38.6725 58.133 38.2534 58.133 37.7366C58.133 37.2197 57.7227 36.8007 57.2166 36.8007C56.7104 36.8007 56.3001 37.2197 56.3001 37.7366C56.3001 38.2534 56.7104 38.6725 57.2166 38.6725Z" fill="#B9B9B9"/>
<path d="M62.434 42.4723C62.9401 42.4723 63.3504 42.0532 63.3504 41.5364C63.3504 41.0195 62.9401 40.6005 62.434 40.6005C61.9278 40.6005 61.5175 41.0195 61.5175 41.5364C61.5175 42.0532 61.9278 42.4723 62.434 42.4723Z" fill="#B9B9B9"/>
<path d="M57.2166 42.4723C57.7227 42.4723 58.133 42.0532 58.133 41.5364C58.133 41.0195 57.7227 40.6005 57.2166 40.6005C56.7104 40.6005 56.3001 41.0195 56.3001 41.5364C56.3001 42.0532 56.7104 42.4723 57.2166 42.4723Z" fill="#B9B9B9"/>
<path d="M62.434 46.2727C62.9401 46.2727 63.3504 45.8537 63.3504 45.3368C63.3504 44.8199 62.9401 44.4009 62.434 44.4009C61.9278 44.4009 61.5175 44.8199 61.5175 45.3368C61.5175 45.8537 61.9278 46.2727 62.434 46.2727Z" fill="#B9B9B9"/>
<path d="M57.2166 46.2727C57.7227 46.2727 58.133 45.8537 58.133 45.3368C58.133 44.8199 57.7227 44.4009 57.2166 44.4009C56.7104 44.4009 56.3001 44.8199 56.3001 45.3368C56.3001 45.8537 56.7104 46.2727 57.2166 46.2727Z" fill="#B9B9B9"/>
<path d="M37.2843 80.9602C37.7904 80.9602 38.2007 80.5412 38.2007 80.0243C38.2007 79.5074 37.7904 79.0884 37.2843 79.0884C36.7781 79.0884 36.3678 79.5074 36.3678 80.0243C36.3678 80.5412 36.7781 80.9602 37.2843 80.9602Z" fill="#B9B9B9"/>
<path d="M36.9899 85.333C37.496 85.333 37.9064 84.914 37.9064 84.3971C37.9064 83.8802 37.496 83.4612 36.9899 83.4612C36.4837 83.4612 36.0734 83.8802 36.0734 84.3971C36.0734 84.914 36.4837 85.333 36.9899 85.333Z" fill="#B9B9B9"/>
<path d="M34.8132 89.7059C35.3194 89.7059 35.7297 89.2869 35.7297 88.77C35.7297 88.2531 35.3194 87.8341 34.8132 87.8341C34.307 87.8341 33.8967 88.2531 33.8967 88.77C33.8967 89.2869 34.307 89.7059 34.8132 89.7059Z" fill="#B9B9B9"/>
<path d="M32.0886 93.0394C32.5947 93.0394 33.0051 92.6204 33.0051 92.1035C33.0051 91.5866 32.5947 91.1676 32.0886 91.1676C31.5824 91.1676 31.1721 91.5866 31.1721 92.1035C31.1721 92.6204 31.5824 93.0394 32.0886 93.0394Z" fill="#B9B9B9"/>
<path d="M27.4144 93.9753C27.9205 93.9753 28.3308 93.5563 28.3308 93.0394C28.3308 92.5225 27.9205 92.1035 27.4144 92.1035C26.9082 92.1035 26.4979 92.5225 26.4979 93.0394C26.4979 93.5563 26.9082 93.9753 27.4144 93.9753Z" fill="#B9B9B9"/>
<path d="M22.2711 93.0394C22.7773 93.0394 23.1876 92.6204 23.1876 92.1035C23.1876 91.5866 22.7773 91.1676 22.2711 91.1676C21.765 91.1676 21.3547 91.5866 21.3547 92.1035C21.3547 92.6204 21.765 93.0394 22.2711 93.0394Z" fill="#B9B9B9"/>
<path d="M82.7527 80.7506C83.2588 80.7506 83.6691 80.3316 83.6691 79.8147C83.6691 79.2978 83.2588 78.8788 82.7527 78.8788C82.2465 78.8788 81.8362 79.2978 81.8362 79.8147C81.8362 80.3316 82.2465 80.7506 82.7527 80.7506Z" fill="#B9B9B9"/>
<path d="M83.0501 85.1234C83.5562 85.1234 83.9665 84.7044 83.9665 84.1875C83.9665 83.6706 83.5562 83.2516 83.0501 83.2516C82.5439 83.2516 82.1336 83.6706 82.1336 84.1875C82.1336 84.7044 82.5439 85.1234 83.0501 85.1234Z" fill="#B9B9B9"/>
<path d="M85.2226 89.496C85.7288 89.496 86.1391 89.0769 86.1391 88.56C86.1391 88.0432 85.7288 87.6241 85.2226 87.6241C84.7165 87.6241 84.3062 88.0432 84.3062 88.56C84.3062 89.0769 84.7165 89.496 85.2226 89.496Z" fill="#B9B9B9"/>
<path d="M87.9514 92.8298C88.4576 92.8298 88.8679 92.4108 88.8679 91.8939C88.8679 91.377 88.4576 90.958 87.9514 90.958C87.4452 90.958 87.0349 91.377 87.0349 91.8939C87.0349 92.4108 87.4452 92.8298 87.9514 92.8298Z" fill="#B9B9B9"/>
<path d="M92.6218 93.7657C93.1279 93.7657 93.5383 93.3467 93.5383 92.8298C93.5383 92.3129 93.1279 91.8939 92.6218 91.8939C92.1156 91.8939 91.7053 92.3129 91.7053 92.8298C91.7053 93.3467 92.1156 93.7657 92.6218 93.7657Z" fill="#B9B9B9"/>
<path d="M97.7688 92.8298C98.275 92.8298 98.6853 92.4108 98.6853 91.8939C98.6853 91.377 98.275 90.958 97.7688 90.958C97.2626 90.958 96.8523 91.377 96.8523 91.8939C96.8523 92.4108 97.2626 92.8298 97.7688 92.8298Z" fill="#B9B9B9"/>
<path d="M70.6786 105.147C73.3759 104.627 84.3062 109.607 85.4311 94.7297C86.5897 79.4422 68.1131 71.3102 59.6012 71.3102C50.4702 71.3102 32.6863 79.2262 33.7713 94.7297C34.8135 109.607 45.2533 104.568 48.5269 105.147C50.2219 105.444 52.9407 107.444 59.6012 107.685C65.0878 107.691 68.3767 105.585 70.6786 105.147Z" fill="#B9B9B9" stroke="#100E3F" stroke-width="0.6" stroke-miterlimit="10"/>
<path d="M59.4482 85.7369C57.7348 85.7369 56.8551 84.3753 56.2022 82.8572C55.9804 82.3471 55.6173 81.9143 55.1576 81.6123C54.6979 81.3103 54.1618 81.1522 53.6152 81.1575C53.4283 81.1575 53.2505 81.1575 53.0819 81.1575C51.1417 81.1012 49.8666 79.3389 50.6298 77.7457C50.9407 77.0708 51.3978 76.4769 51.9665 76.009C52.5352 75.541 53.2007 75.2112 53.9126 75.0444C57.5456 74.071 61.3631 74.071 64.9961 75.0444C65.708 75.2112 66.3734 75.541 66.9421 76.009C67.5108 76.4769 67.9679 77.0708 68.2789 77.7457C69.0359 79.3389 67.7608 81.1012 65.8267 81.1575C65.6582 81.1575 65.4804 81.1575 65.2934 81.1575C64.7469 81.1522 64.2107 81.3103 63.7511 81.6123C63.2914 81.9143 62.9283 82.3471 62.7064 82.8572C62.0536 84.3753 61.1739 85.7369 59.4605 85.7369" fill="#100E3F"/>
<path d="M39.8992 90.0376C39.8992 90.0376 39.8103 93.9189 46.7896 95.8126C53.7689 97.7064 59.6111 92.6669 59.6111 92.6669C59.6111 92.6669 65.4348 97.7189 72.4233 95.8252C79.4118 93.9315 79.3137 90.0501 79.3137 90.0501" stroke="#100E3F" stroke-linecap="round" stroke-linejoin="round"/>
<path d="M49.5904 104.874C49.5272 104.849 49.4697 104.81 49.4217 104.761C49.3737 104.712 49.3361 104.653 49.3114 104.589C49.2866 104.524 49.2752 104.455 49.2779 104.385C49.2806 104.316 49.2972 104.248 49.3268 104.186C50.1085 102.574 53.051 97.5435 59.3682 97.5529C66.0809 97.5529 69.2563 103.303 69.897 104.621C69.9137 104.655 69.9233 104.692 69.9251 104.731C69.927 104.769 69.9212 104.807 69.9079 104.843C69.8947 104.879 69.8744 104.911 69.8482 104.939C69.8221 104.966 69.7907 104.988 69.756 105.003C68.6127 105.494 63.9322 107.378 59.5644 107.194C55.3682 107.025 51.028 105.441 49.5904 104.874Z" fill="#CCCCCB"/>
<path d="M48.9286 105.187C49.511 104.668 50.0872 103.341 50.2282 102.683L48.9286 105.187Z" fill="#CCCCCB"/>
<path d="M48.9286 105.187C49.511 104.668 50.0872 103.341 50.2282 102.683" stroke="#100E3F" stroke-width="0.6" stroke-miterlimit="10" stroke-linecap="round"/>
<path d="M69.9247 105.187C69.3424 104.668 68.7661 103.341 68.6251 102.683L69.9247 105.187Z" fill="#CCCCCB"/>
<path d="M69.9247 105.187C69.3424 104.668 68.7661 103.341 68.6251 102.683" stroke="#100E3F" stroke-width="0.6" stroke-miterlimit="10" stroke-linecap="round"/>
<path d="M56.9104 97.0179C56.9104 97.0179 59.4054 95.337 61.6583 97.0179H56.9104Z" fill="#B9B9B9"/>
<path d="M56.9104 97.0179C56.9104 97.0179 59.4054 95.337 61.6583 97.0179" stroke="#100E3F" stroke-width="0.6" stroke-linecap="round" stroke-linejoin="round"/>
<path d="M50.0004 28.9998C50.0004 28.9998 43.5989 22.7579 39.7261 23.6286C35.8532 24.4993 10.1646 34.424 5.8624 39.8076C3.92006 42.2326 2.21458 48.4589 4.26056 52.5536C6.30653 56.6483 14.677 75.9608 17.1079 77.2778C19.5387 78.5949 21.7949 64.4039 24.6463 56.5016C27.4976 48.5994 28.0483 42.6352 31.6547 39.1148C35.2611 35.5943 50.0004 28.9998 50.0004 28.9998Z" fill="#100E3F" stroke="#100E3F" stroke-width="2" stroke-miterlimit="10"/>
<path d="M29.3156 35.5215C30.4907 34.8588 31.0605 33.6137 30.5883 32.7405C30.1161 31.8673 28.7807 31.6968 27.6056 32.3595C26.4305 33.0222 25.8606 34.2673 26.3328 35.1404C26.805 36.0136 28.1405 36.1842 29.3156 35.5215Z" fill="#EEEEEE"/>
<path d="M3.08331 42.8639C2.41511 44.3288 2.21894 45.8563 2.65725 49.5122C2.74327 50.1568 2.88376 50.7925 3.07718 51.4122C5.39748 57.5754 7.09557 60.5052 7.09557 60.5052C7.09557 60.5052 14.3201 76.2528 15.9845 76.4343C16.1255 76.452 16.2687 76.4361 16.4027 76.3877C16.5367 76.3394 16.658 76.26 16.7569 76.1557C16.7971 76.1166 16.8292 76.0695 16.851 76.0173C16.8729 75.9651 16.8842 75.9089 16.8842 75.8521C16.8842 75.7953 16.8729 75.7392 16.851 75.687C16.8292 75.6348 16.7971 75.5877 16.7569 75.5485C15.2243 74.1149 11.3071 65.914 9.21051 60.5052C7.53388 56.1731 6.14538 47.6436 5.25036 43.0955C4.99595 41.7965 3.72699 41.4428 3.08331 42.8639Z" fill="#EEEEEE"/>
<path d="M70.0002 28.9998C70.0002 28.9998 76.4008 22.7579 80.2761 23.6286C84.1514 24.4993 109.831 34.424 114.138 39.8045C116.081 42.2326 117.786 48.4589 115.74 52.5536C113.694 56.6483 105.325 75.9608 102.894 77.2778C100.464 78.5949 98.208 64.4039 95.357 56.5016C92.506 48.5994 91.9554 42.6352 88.3495 39.1148C84.7436 35.5943 70.0002 28.9998 70.0002 28.9998Z" fill="#100E3F" stroke="#100E3F" stroke-width="2" stroke-miterlimit="10"/>
<path d="M94.6854 35.8609C95.1576 34.9878 94.5878 33.7427 93.4126 33.08C92.2375 32.4172 90.9021 32.5878 90.4299 33.461C89.9577 34.3342 90.5275 35.5792 91.7027 36.242C92.8778 36.9047 94.2132 36.7341 94.6854 35.8609Z" fill="#EEEEEE"/>
<path d="M117.934 43.5868C118.599 45.0517 118.798 46.5792 118.36 50.232C118.274 50.8776 118.134 51.5144 117.94 52.1351C115.62 58.2983 113.922 61.2281 113.922 61.2281C113.922 61.2281 106.697 76.9726 105.033 77.1572C104.892 77.1749 104.748 77.159 104.614 77.1106C104.48 77.0623 104.359 76.9829 104.26 76.8787C104.22 76.8393 104.189 76.7921 104.167 76.7399C104.145 76.6878 104.134 76.6317 104.134 76.575C104.134 76.5184 104.145 76.4623 104.167 76.4102C104.189 76.358 104.22 76.3108 104.26 76.2714C105.793 74.8378 109.713 66.6369 111.81 61.2281C113.486 56.896 114.875 48.3665 115.77 43.8184C116.009 42.5194 117.29 42.1657 117.934 43.5868Z" fill="#EEEEEE"/>
<path d="M22.4889 57.9977L20.2452 65.5976L18.2528 72.8344C18.2528 72.8344 17.2322 75.6515 17.0268 76.0396C16.885 76.2844 16.757 76.5373 16.6436 76.7971C17.0513 76.6953 17.4275 76.4908 17.7379 76.2024C18.1088 75.7892 19.203 72.7969 19.203 72.7969L21.2322 65.5193L22.78 57.982C22.78 57.982 22.5655 57.8506 22.4889 57.9977Z" fill="#CCCCCB"/>
<path d="M97.8296 59.488L100.07 67.0879L102.063 74.3247C102.063 74.3247 103.083 77.1418 103.307 77.5299C103.449 77.7747 103.577 78.0276 103.69 78.2874C103.282 78.1861 102.905 77.9828 102.593 77.6958C102.222 77.2795 101.131 74.2871 101.131 74.2871L99.1017 67.0002L97.5691 59.4629C97.5691 59.4629 97.7561 59.3409 97.8296 59.488Z" fill="#CCCCCB"/>
<path d="M56.9536 88.4194C57.3836 88.4194 57.7321 88.0635 57.7321 87.6244C57.7321 87.1853 57.3836 86.8293 56.9536 86.8293C56.5236 86.8293 56.175 87.1853 56.175 87.6244C56.175 88.0635 56.5236 88.4194 56.9536 88.4194Z" fill="#EEEEEE"/>
<path d="M56.9505 91.1017C57.3805 91.1017 57.7291 90.7457 57.7291 90.3066C57.7291 89.8676 57.3805 89.5116 56.9505 89.5116C56.5206 89.5116 56.172 89.8676 56.172 90.3066C56.172 90.7457 56.5206 91.1017 56.9505 91.1017Z" fill="#EEEEEE"/>
<path d="M62.2742 88.4194C62.7042 88.4194 63.0527 88.0635 63.0527 87.6244C63.0527 87.1853 62.7042 86.8293 62.2742 86.8293C61.8442 86.8293 61.4956 87.1853 61.4956 87.6244C61.4956 88.0635 61.8442 88.4194 62.2742 88.4194Z" fill="#EEEEEE"/>
<path d="M64.7848 89.5649C65.2148 89.5649 65.5634 89.209 65.5634 88.7699C65.5634 88.3308 65.2148 87.9749 64.7848 87.9749C64.3549 87.9749 64.0063 88.3308 64.0063 88.7699C64.0063 89.209 64.3549 89.5649 64.7848 89.5649Z" fill="#EEEEEE"/>
<path d="M54.5351 89.5649C54.9651 89.5649 55.3137 89.209 55.3137 88.7699C55.3137 88.3308 54.9651 87.9749 54.5351 87.9749C54.1052 87.9749 53.7566 88.3308 53.7566 88.7699C53.7566 89.209 54.1052 89.5649 54.5351 89.5649Z" fill="#EEEEEE"/>
<path d="M62.2682 91.1017C62.6982 91.1017 63.0468 90.7457 63.0468 90.3066C63.0468 89.8676 62.6982 89.5116 62.2682 89.5116C61.8383 89.5116 61.4897 89.8676 61.4897 90.3066C61.4897 90.7457 61.8383 91.1017 62.2682 91.1017Z" fill="#EEEEEE"/>
<path d="M50.9851 11.3653C48.2898 10.5139 45.6119 9.61038 42.9514 8.65466C42.8544 8.62732 42.753 8.61977 42.6532 8.63242C42.5533 8.64508 42.4569 8.6777 42.3693 8.72842C42.2818 8.77914 42.2049 8.84696 42.1431 8.92803C42.0812 9.00909 42.0356 9.1018 42.0088 9.20086C41.9821 9.29992 41.9747 9.4034 41.9871 9.50538C41.9995 9.60737 42.0314 9.70586 42.0811 9.79524C42.1307 9.88461 42.1972 9.96313 42.2765 10.0263C42.3559 10.0895 42.4467 10.136 42.5437 10.1634C45.2002 11.117 47.8781 12.0206 50.5774 12.874C51.5215 13.1871 51.9261 11.6627 50.9851 11.3653Z" fill="#D3ECF8"/>
<path d="M54.5071 6.30109C53.5592 5.198 52.3948 4.31073 51.0894 3.69684C50.9138 3.59224 50.7048 3.56315 50.5082 3.61598C50.3116 3.66881 50.1436 3.79923 50.0412 3.97855C49.9387 4.15786 49.9103 4.37138 49.962 4.57214C50.0137 4.7729 50.1414 4.94444 50.317 5.04904C50.9306 5.33434 51.5131 5.68476 52.055 6.0945L52.1408 6.16336C52.2573 6.25101 52.0642 6.09763 52.1408 6.16336L52.3339 6.31987C52.4596 6.42942 52.5822 6.53898 52.7017 6.65166C52.9559 6.8919 53.1973 7.1458 53.4251 7.41228C53.5696 7.55794 53.7645 7.6396 53.9676 7.6396C54.1707 7.6396 54.3656 7.55794 54.5101 7.41228C54.6492 7.26277 54.7267 7.06445 54.7267 6.85825C54.7267 6.65205 54.6492 6.45372 54.5101 6.30422L54.5071 6.30109Z" fill="#D3ECF8"/>
<path d="M61.5445 5.61229C61.6584 4.00514 61.6881 2.39292 61.6334 0.782528C61.6334 0.574989 61.5526 0.37595 61.4089 0.229197C61.2652 0.0824447 61.0703 0 60.8671 0C60.6639 0 60.469 0.0824447 60.3252 0.229197C60.1815 0.37595 60.1008 0.574989 60.1008 0.782528V1.32717C60.1008 1.53471 60.1815 1.73375 60.3252 1.8805C60.469 2.02725 60.6639 2.10969 60.8671 2.10969C61.0703 2.10969 61.2652 2.02725 61.4089 1.8805C61.5526 1.73375 61.6334 1.53471 61.6334 1.32717V0.782528H60.1008C60.1555 2.39292 60.1258 4.00514 60.0119 5.61229C60.0119 5.81983 60.0927 6.01887 60.2364 6.16562C60.3801 6.31237 60.575 6.39482 60.7782 6.39482C60.9797 6.38928 61.1715 6.30506 61.314 6.15949C61.4566 6.01392 61.5391 5.81808 61.5445 5.61229Z" fill="#D3ECF8"/>
<path d="M66.7736 8.57359L73.8479 4.76111C74.7215 4.28847 73.9491 2.93939 73.0755 3.40891L66.0012 7.21512C65.1276 7.68464 65.9031 9.03685 66.7736 8.56733V8.57359Z" fill="#D3ECF8"/>
<path d="M68.4994 13.2215L76.6037 12.5954C76.8052 12.5899 76.997 12.5057 77.1395 12.3601C77.2821 12.2146 77.3645 12.0187 77.3699 11.8129C77.3683 11.6059 77.2871 11.4078 77.1437 11.2614C77.0004 11.115 76.8064 11.032 76.6037 11.0304L68.4994 11.6564C68.2977 11.6612 68.1055 11.7452 67.9628 11.8909C67.8201 12.0366 67.7378 12.2329 67.7332 12.4389C67.734 12.6462 67.815 12.8448 67.9585 12.9914C68.102 13.1379 68.2965 13.2206 68.4994 13.2215Z" fill="#D3ECF8"/>
<path d="M37 67C37.8148 66 40.0556 64 42.5 64C44.9444 64 47.1852 66 48 67" stroke="#8EF4FD" stroke-width="3" stroke-linecap="round"/>
<path d="M71 68C71.8148 67 74.0556 65 76.5 65C78.9444 65 81.1852 67 82 68" stroke="#8EF4FD" stroke-width="3" stroke-linecap="round"/>
</g>
<defs>
<clipPath id="clip0_6_2077">
<rect width="120" height="111" fill="white"/>
</clipPath>
</defs>
</svg>
