<svg width="57" height="27" viewBox="0 0 57 27" fill="none" xmlns="http://www.w3.org/2000/svg">
<path d="M15.7598 19.861H11.6886C11.6592 19.861 11.6302 19.8538 11.6042 19.8401C11.5782 19.8264 11.5562 19.8065 11.5399 19.7824L4.33769 9.05372V19.6864C4.33769 19.7324 4.3191 19.7766 4.286 19.8092C4.2529 19.8417 4.20801 19.86 4.1612 19.86H0.163123C0.119858 19.86 0.0783757 19.8431 0.0477828 19.813C0.01719 19.7829 0 19.7421 0 19.6995V2.50806C0 2.48604 0.0044074 2.46424 0.0129729 2.4439C0.0215384 2.42355 0.0340949 2.40506 0.0499219 2.38949C0.0657489 2.37391 0.0845355 2.36156 0.105215 2.35313C0.125893 2.34471 0.14805 2.34037 0.170433 2.34037H4.24239C4.27165 2.34038 4.30045 2.34755 4.3262 2.36123C4.35195 2.37492 4.37384 2.39469 4.38989 2.41876L11.5928 13.1975V2.45597C11.5928 2.42201 11.6036 2.3889 11.6237 2.36127C11.6438 2.33365 11.6721 2.31289 11.7048 2.30192L15.6968 0.962326C15.7234 0.953364 15.7517 0.950771 15.7795 0.954763C15.8073 0.958755 15.8337 0.969219 15.8566 0.98528C15.8795 1.00134 15.8981 1.02254 15.911 1.04711C15.9238 1.07168 15.9305 1.09891 15.9305 1.12655V19.6923C15.9306 19.7144 15.9263 19.7364 15.9178 19.7568C15.9092 19.7773 15.8967 19.7959 15.8808 19.8116C15.8649 19.8272 15.8461 19.8397 15.8253 19.8482C15.8046 19.8566 15.7823 19.861 15.7598 19.861Z" fill="white"/>
<path d="M19.0381 8.90441C19.5336 7.88188 20.3111 7.01689 21.2821 6.40805C22.2325 5.8247 23.333 5.52166 24.4531 5.53484C25.3654 5.51505 26.2682 5.72096 27.0786 6.13368C27.7899 6.49612 28.3898 7.03892 28.8163 7.70597V5.8479C28.8165 5.81503 28.827 5.78302 28.8466 5.75634C28.8661 5.72966 28.8936 5.70964 28.9252 5.69906L32.9266 4.3555C32.9524 4.34692 32.98 4.34451 33.0069 4.34847C33.0339 4.35244 33.0595 4.36265 33.0817 4.37829C33.1039 4.39392 33.122 4.41452 33.1344 4.43837C33.1469 4.46223 33.1535 4.48867 33.1535 4.5155V19.4889C33.1535 19.535 33.1349 19.5792 33.1018 19.6117C33.0687 19.6443 33.0238 19.6626 32.977 19.6626H28.9898C28.944 19.6626 28.9002 19.6447 28.8678 19.6129C28.8355 19.5811 28.8173 19.5379 28.8173 19.4929V17.6911C28.3768 18.3556 27.7695 18.897 27.0541 19.2629C26.244 19.6761 25.3412 19.8822 24.4289 19.8623C23.3152 19.8729 22.2224 19.565 21.2831 18.9762C20.3109 18.3579 19.5337 17.4847 19.0391 16.455C18.4958 15.2684 18.2149 13.9818 18.2149 12.6803C18.2149 11.3789 18.4958 10.0923 19.0391 8.90564L19.0381 8.90441ZM27.9164 10.1768C27.6383 9.88098 27.3001 9.64596 26.9237 9.48694C26.5474 9.32793 26.1413 9.24847 25.7317 9.25369C25.1347 9.25184 24.5502 9.42171 24.05 9.7424C23.1011 10.3578 22.627 11.3347 22.6277 12.6731C22.6277 13.7377 22.9279 14.5821 23.5283 15.2064C23.8091 15.5102 24.153 15.751 24.5367 15.9124C24.9204 16.0739 25.3349 16.1522 25.7521 16.1422C26.3472 16.1376 26.9275 15.9598 27.42 15.6312C28.3505 15.0027 28.8163 14.025 28.8173 12.6979C28.8173 11.6332 28.517 10.7928 27.9164 10.1768V10.1768Z" fill="white"/>
<path d="M39.776 0.164044V19.7023C39.776 19.7444 39.759 19.7848 39.7288 19.8145C39.6985 19.8443 39.6574 19.861 39.6147 19.861H35.602C35.5586 19.861 35.517 19.8441 35.4863 19.814C35.4557 19.7838 35.4384 19.7429 35.4383 19.7003V1.51009C35.4383 1.47545 35.4493 1.44167 35.4698 1.41351C35.4903 1.38534 35.5192 1.3642 35.5525 1.35306L39.5556 0.00874896C39.5807 0.000346366 39.6075 -0.00205096 39.6337 0.00176132C39.6599 0.0055736 39.6849 0.0154821 39.7064 0.0306658C39.7279 0.0458495 39.7455 0.0658696 39.7576 0.0890653C39.7697 0.112261 39.776 0.137969 39.776 0.164044V0.164044Z" fill="white"/>
<path d="M42.8836 8.9044C43.3791 7.88189 44.1566 7.0169 45.1276 6.40804C46.078 5.82467 47.1785 5.52162 48.2986 5.53483C49.2109 5.51502 50.1135 5.72093 50.9238 6.13368C51.6352 6.49597 52.2351 7.03881 52.6616 7.70596V5.85534C52.6615 5.8201 52.6727 5.78575 52.6936 5.75709C52.7144 5.72844 52.7439 5.70693 52.7778 5.69558L56.7731 4.354C56.7989 4.34521 56.8264 4.34262 56.8534 4.34644C56.8804 4.35027 56.9061 4.36041 56.9283 4.376C56.9506 4.39159 56.9686 4.41218 56.9811 4.43606C56.9936 4.45994 57.0001 4.48641 57 4.51326V19.4969C57 19.5405 56.9824 19.5823 56.951 19.6132C56.9197 19.644 56.8772 19.6613 56.8328 19.6613H52.8365C52.7905 19.6613 52.7463 19.6432 52.7138 19.6112C52.6812 19.5792 52.6629 19.5357 52.6628 19.4904V17.6899C52.2224 18.3543 51.6152 18.8957 50.8999 19.2617C50.0896 19.6748 49.1868 19.8809 48.2744 19.861C47.1608 19.8717 46.068 19.5638 45.1288 18.9749C44.1567 18.3567 43.3795 17.4834 42.8848 16.4537C42.3417 15.2671 42.0609 13.9805 42.0609 12.6791C42.0609 11.3776 42.3417 10.0911 42.8848 8.9044H42.8836ZM51.7622 10.1768C51.4841 9.881 51.1459 9.646 50.7696 9.48699C50.3933 9.32798 49.9872 9.24849 49.5777 9.25369C48.9805 9.25168 48.3958 9.42155 47.8955 9.74239C46.947 10.3578 46.4729 11.3347 46.4732 12.6731C46.4732 13.7377 46.7734 14.5821 47.3738 15.2064C47.6546 15.5101 47.9984 15.7508 48.382 15.9123C48.7656 16.0737 49.18 16.1521 49.5971 16.1422C50.1923 16.1376 50.7728 15.9598 51.2655 15.6311C52.1962 15.0027 52.662 14.025 52.6628 12.6979C52.6631 11.6332 52.3629 10.7928 51.7622 10.1768V10.1768Z" fill="white"/>
<path d="M37.7484 26.9995C36.304 26.9917 34.8807 26.6585 33.5875 26.0255C32.2943 25.3925 31.1656 24.4766 30.288 23.3479C30.2213 23.254 30.174 23.1482 30.1489 23.0363C30.1237 22.9245 30.1212 22.8088 30.1415 22.696C30.1825 22.4682 30.3138 22.2658 30.5064 22.1332C30.6991 22.0006 30.9375 21.9488 31.169 21.9891C31.4005 22.0294 31.6063 22.1586 31.741 22.3482C32.4534 23.2484 33.3643 23.9778 34.4049 24.4813C35.4455 24.9847 36.5887 25.2492 37.7484 25.2546C38.8632 25.2698 39.9649 25.0168 40.9578 24.5176C41.9506 24.0184 42.8044 23.2882 43.445 22.3903C43.5683 22.1933 43.766 22.0525 43.9947 21.9988C44.2234 21.9452 44.4645 21.9832 44.6647 22.1044C44.865 22.2257 45.0081 22.4202 45.0626 22.6453C45.1171 22.8703 45.0785 23.1074 44.9553 23.3045C44.1552 24.4557 43.079 25.3951 41.8219 26.0396C40.5649 26.6841 39.1658 27.0138 37.7484 26.9995V26.9995Z" fill="white"/>
</svg>
