<svg width="32" height="32" viewBox="0 0 32 32" fill="none" xmlns="http://www.w3.org/2000/svg">
<path d="M22.9001 21.1951C24.831 19.7469 26.2573 17.7279 26.977 15.424C27.6967 13.1202 27.6732 10.6483 26.91 8.3585C26.1467 6.06871 24.6823 4.07712 22.7243 2.66583C20.7662 1.25455 18.4138 0.495117 16.0001 0.495117C13.5865 0.495117 11.234 1.25455 9.27594 2.66583C7.31789 4.07712 5.85351 6.06871 5.09025 8.3585C4.32699 10.6483 4.30353 13.1202 5.0232 15.424C5.74287 17.7279 7.16919 19.7469 9.10011 21.1951L3.14511 27.1451C3.07222 27.2186 3.02394 27.3129 3.00693 27.415C2.98991 27.5171 3.005 27.622 3.05011 27.7151C3.0947 27.8074 3.16658 27.8838 3.25601 27.9339C3.34545 27.9839 3.44811 28.0053 3.55011 27.9951L7.50011 27.5601V31.0001C7.5006 31.0988 7.5303 31.1952 7.58547 31.277C7.64064 31.3589 7.7188 31.4226 7.81011 31.4601C7.86945 31.4881 7.93452 31.5018 8.00011 31.5001C8.06591 31.5005 8.13114 31.4879 8.19206 31.463C8.25298 31.4381 8.30839 31.4015 8.35511 31.3551L16.0001 23.7051L23.6451 31.3551C23.6918 31.4015 23.7472 31.4381 23.8082 31.463C23.8691 31.4879 23.9343 31.5005 24.0001 31.5001C24.0657 31.5018 24.1308 31.4881 24.1901 31.4601C24.2814 31.4226 24.3596 31.3589 24.4147 31.277C24.4699 31.1952 24.4996 31.0988 24.5001 31.0001V27.5601L28.4451 27.9951C28.5471 28.0053 28.6498 27.9839 28.7392 27.9339C28.8286 27.8838 28.9005 27.8074 28.9451 27.7151C28.9902 27.622 29.0053 27.5171 28.9883 27.415C28.9713 27.3129 28.923 27.2186 28.8501 27.1451L22.9001 21.1951ZM5.50011 12.0001C5.50011 9.92341 6.11592 7.89335 7.26968 6.16663C8.42343 4.43991 10.0633 3.0941 11.9819 2.29938C13.9006 1.50466 16.0118 1.29673 18.0486 1.70187C20.0854 2.10702 21.9563 3.10704 23.4247 4.5755C24.8932 6.04395 25.8932 7.91487 26.2984 9.95167C26.7035 11.9885 26.4956 14.0997 25.7008 16.0183C24.9061 17.9369 23.5603 19.5768 21.8336 20.7305C20.1069 21.8843 18.0768 22.5001 16.0001 22.5001C13.2153 22.5001 10.5446 21.3939 8.57549 19.4247C6.60635 17.4556 5.50011 14.7849 5.50011 12.0001ZM8.33511 26.6251C8.28219 26.5788 8.22011 26.5442 8.15291 26.5235C8.08571 26.5028 8.0149 26.4966 7.94511 26.5051L4.86011 26.8451L9.94011 21.7651C11.4249 22.6963 13.1058 23.2698 14.8501 23.4401L8.50011 29.7951V27.0001C8.50065 26.9295 8.48622 26.8596 8.45778 26.7949C8.42934 26.7303 8.38753 26.6724 8.33511 26.6251ZM24.0551 26.5001C23.9853 26.4916 23.9145 26.4978 23.8473 26.5185C23.7801 26.5392 23.718 26.5738 23.6651 26.6201C23.612 26.668 23.5699 26.7267 23.5414 26.7922C23.5129 26.8578 23.4989 26.9287 23.5001 27.0001V29.7951L17.1501 23.4401C18.8945 23.2698 20.5753 22.6963 22.0601 21.7651L27.1401 26.8451L24.0551 26.5001Z" fill="#333333"/>
<path d="M25.5 12C25.5 10.1211 24.9428 8.28435 23.899 6.72209C22.8551 5.15982 21.3714 3.94218 19.6355 3.22315C17.8996 2.50412 15.9895 2.31598 14.1466 2.68254C12.3038 3.0491 10.6111 3.95389 9.28249 5.28249C7.95389 6.61109 7.0491 8.30383 6.68254 10.1466C6.31598 11.9895 6.50412 13.8996 7.22315 15.6355C7.94218 17.3714 9.15982 18.8551 10.7221 19.899C12.2844 20.9428 14.1211 21.5 16 21.5C18.5196 21.5 20.9359 20.4991 22.7175 18.7175C24.4991 16.9359 25.5 14.5196 25.5 12ZM7.875 9.5H13C13.0658 9.50038 13.131 9.48777 13.192 9.46289C13.2529 9.43801 13.3083 9.40134 13.355 9.355L15.355 7.355C15.4013 7.30828 15.438 7.25288 15.4629 7.19196C15.4878 7.13104 15.5004 7.06581 15.5 7V5.5C15.7652 5.5 16.0196 5.60536 16.2071 5.7929C16.3946 5.98043 16.5 6.23479 16.5 6.5V9C16.5 9.13261 16.5527 9.25979 16.6465 9.35356C16.7402 9.44733 16.8674 9.5 17 9.5H21.5V10.5H17.5V11.5H21.5V12.5H17.5V13.5H21.5V14.5H17.5V15.5H21.5V16C21.5 16.1326 21.4473 16.2598 21.3536 16.3536C21.2598 16.4473 21.1326 16.5 21 16.5H15.12L13.225 15.555C13.1553 15.5193 13.0783 15.5005 13 15.5H8.265C7.76038 14.4022 7.4994 13.2082 7.5 12C7.5011 11.1527 7.62747 10.3103 7.875 9.5ZM8.8 16.5H12.88L14.775 17.445C14.8447 17.4807 14.9217 17.4995 15 17.5H21C21.3978 17.5 21.7794 17.342 22.0607 17.0607C22.342 16.7794 22.5 16.3978 22.5 16V9C22.5 8.8674 22.4473 8.74022 22.3536 8.64645C22.2598 8.55268 22.1326 8.5 22 8.5H17.5V6.5C17.5 5.96957 17.2893 5.46086 16.9142 5.08579C16.5391 4.71072 16.0304 4.5 15.5 4.5H15C14.8674 4.5 14.7402 4.55268 14.6465 4.64645C14.5527 4.74022 14.5 4.8674 14.5 5V6.795L12.795 8.5H8.265C9.04517 6.77331 10.3799 5.3568 12.0572 4.47544C13.7345 3.59408 15.6582 3.29841 17.5227 3.63538C19.3873 3.97236 21.0858 4.92267 22.3485 6.33537C23.6112 7.74808 24.3657 9.54217 24.4921 11.4327C24.6185 13.3232 24.1096 15.2018 23.0463 16.7701C21.983 18.3383 20.4261 19.5063 18.623 20.0886C16.82 20.6708 14.874 20.634 13.0943 19.9838C11.3146 19.3336 9.80314 18.1074 8.8 16.5Z" fill="#333333"/>
<path d="M4.50004 5.49995C4.57878 5.5029 4.6571 5.48719 4.72861 5.45411C4.80012 5.42104 4.8628 5.37153 4.91155 5.30962C4.96029 5.24772 4.99371 5.17517 5.00909 5.0979C5.02447 5.02062 5.02137 4.9408 5.00004 4.86495L4.57504 3.42995L5.29504 2.90495C5.37171 2.84877 5.43077 2.77189 5.46531 2.68333C5.49985 2.59478 5.50843 2.49821 5.49004 2.40495C5.47455 2.30873 5.43128 2.21914 5.36554 2.14718C5.29981 2.07523 5.21448 2.02406 5.12004 1.99995L3.95504 1.71995L3.45504 0.764955C3.4122 0.685579 3.34868 0.619271 3.27122 0.573056C3.19376 0.526841 3.10524 0.502441 3.01504 0.502441C2.92484 0.502441 2.83632 0.526841 2.75886 0.573056C2.6814 0.619271 2.61788 0.685579 2.57504 0.764955L2.07504 1.71995L0.880042 1.99995C0.783762 2.02234 0.696278 2.07276 0.628642 2.14484C0.561007 2.21693 0.516255 2.30745 0.500042 2.40495C0.481658 2.49821 0.490237 2.59478 0.524773 2.68333C0.55931 2.77189 0.618374 2.84877 0.695042 2.90495L1.42504 3.42995L1.00004 4.86495C0.972011 4.9648 0.975721 5.0709 1.01066 5.16854C1.0456 5.26619 1.11003 5.35055 1.19504 5.40995C1.27972 5.47025 1.38109 5.50265 1.48504 5.50265C1.58899 5.50265 1.69036 5.47025 1.77504 5.40995L3.00004 4.49995L4.20504 5.38495C4.28832 5.45423 4.39185 5.49459 4.50004 5.49995ZM3.70504 2.82995C3.61921 2.8877 3.5534 2.97064 3.51668 3.06736C3.47996 3.16407 3.47415 3.2698 3.50004 3.36995L3.60504 3.73995L3.29504 3.49995C3.20941 3.43738 3.1061 3.40366 3.00004 3.40366C2.89398 3.40366 2.79067 3.43738 2.70504 3.49995L2.37504 3.73995L2.50004 3.36995C2.52799 3.27182 2.52524 3.16749 2.49217 3.07096C2.4591 2.97443 2.39729 2.89033 2.31504 2.82995L2.15004 2.72495L2.50004 2.63495C2.56656 2.61793 2.62885 2.58739 2.68304 2.54524C2.73724 2.50309 2.78217 2.45023 2.81504 2.38995L3.00004 2.05995L3.18004 2.38995C3.21346 2.45076 3.25917 2.50394 3.31426 2.54612C3.36936 2.5883 3.43262 2.61856 3.50004 2.63495L3.85504 2.72495L3.70504 2.82995Z" fill="#333333"/>
<path d="M31.5 2.40506C31.4838 2.30755 31.439 2.21704 31.3714 2.14495C31.3037 2.07287 31.2163 2.02245 31.12 2.00006L29.955 1.70506L29.455 0.750062C29.4121 0.670686 29.3486 0.604378 29.2712 0.558164C29.1937 0.511949 29.1052 0.487549 29.015 0.487549C28.9248 0.487549 28.8363 0.511949 28.7588 0.558164C28.6813 0.604378 28.6178 0.670686 28.575 0.750062L28.075 1.70506L26.88 2.00006C26.7876 2.02308 26.7037 2.07202 26.6381 2.14111C26.5726 2.2102 26.5281 2.29657 26.51 2.39006C26.4916 2.48332 26.5002 2.57989 26.5347 2.66844C26.5693 2.757 26.6283 2.83387 26.705 2.89006L27.425 3.41506L27 4.86506C26.972 4.96491 26.9757 5.071 27.0106 5.16865C27.0455 5.26629 27.11 5.35066 27.195 5.41006C27.2797 5.47035 27.381 5.50275 27.485 5.50275C27.5889 5.50275 27.6903 5.47035 27.775 5.41006L29 4.50006L30.205 5.38506C30.2883 5.45434 30.3918 5.4947 30.5 5.50006C30.5787 5.503 30.657 5.4873 30.7286 5.45422C30.8001 5.42114 30.8627 5.37164 30.9115 5.30973C30.9602 5.24783 30.9937 5.17528 31.009 5.098C31.0244 5.02073 31.0213 4.94091 31 4.86506L30.595 3.43006L31.315 2.90506C31.3899 2.84766 31.4469 2.77025 31.4797 2.68178C31.5124 2.5933 31.5195 2.49737 31.5 2.40506ZM29.715 2.83006C29.6273 2.88644 29.5595 2.9688 29.521 3.06561C29.4824 3.16243 29.4751 3.26887 29.5 3.37006L29.605 3.74006L29.295 3.50006C29.2094 3.43749 29.106 3.40376 29 3.40376C28.8939 3.40376 28.7906 3.43749 28.705 3.50006L28.375 3.74006L28.5 3.37006C28.5279 3.27193 28.5252 3.1676 28.4921 3.07107C28.459 2.97454 28.3972 2.89044 28.315 2.83006L28.17 2.72506L28.5 2.63506C28.5665 2.61804 28.6288 2.5875 28.683 2.54535C28.7372 2.5032 28.7821 2.45034 28.815 2.39006L29 2.06006L29.18 2.39006C29.2129 2.45034 29.2578 2.5032 29.312 2.54535C29.3662 2.5875 29.4285 2.61804 29.495 2.63506L29.85 2.72506L29.715 2.83006Z" fill="#333333"/>
</svg>
