<svg width="51" height="51" viewBox="0 0 51 51" fill="none" xmlns="http://www.w3.org/2000/svg">
<circle cx="25.5" cy="25.5" r="25.5" fill="#19E2D6"/>
<path d="M39.5 39.5V24.5H38.5V22.5H37.5V19.5H36.5V17.5H35.5V19.5H34.5V22.5H33.5V11.39L30.5 11.99V10.5H29.5V12.19L28.5 12.39V9.5H27.5V12.59L26.5 12.79V10.5H25.5V12.9905L22.5 13.5905V16.5H13.5V17.5H14.5V23.5455C14.336 23.5185 14.17 23.5 14 23.5C12.0705 23.5 10.5 25.2945 10.5 27.5C10.5 29.511 11.807 31.1755 13.5 31.4545V32.106C13.0815 31.7275 12.563 31.5 12 31.5C10.6215 31.5 9.5 32.8455 9.5 34.5C9.5 35.949 10.3605 37.1605 11.5 37.4395V39.5H9.5V40.5H40.5V39.5H39.5ZM17.5 39C17.5 38.173 18.173 37.5 19 37.5C19.54 37.5 20.041 37.7925 20.3075 38.2635L20.4625 38.538L21 38.5C21.147 38.5 21.302 38.5285 21.474 38.5865L21.96 38.7495L22.1115 38.26C22.437 37.2075 23.397 36.5 24.5 36.5C25.409 36.5 26.248 36.9955 26.6895 37.7935L27.002 38.3595L27.471 37.9145C28.0345 37.3805 28.965 37.3805 29.5285 37.9145L29.9975 38.3595L30.31 37.7935C30.752 36.9955 31.591 36.5 32.5 36.5C33.5855 36.5 34.5405 37.194 34.8765 38.227L35.017 38.6585L35.4605 38.5605C36.4515 38.3405 37.42 38.7485 37.9895 39.5H17.597C17.54 39.339 17.5 39.1725 17.5 39V39ZM38.5 25.5V38.5685C38.21 38.2715 37.8735 38.027 37.5 37.848V26.5H30.5V36.135C30.2195 36.331 29.964 36.564 29.749 36.837C29.669 36.7905 29.585 36.751 29.5 36.7145V25.5H38.5ZM32.5 35.5C32.156 35.5 31.8205 35.556 31.5 35.652V27.5H33.5V35.645C33.1815 35.5505 32.8455 35.5 32.5 35.5ZM34.5 27.5H36.5V37.547C36.2285 37.5075 35.952 37.4885 35.6695 37.516C35.405 36.9495 34.996 36.4805 34.5 36.134V27.5ZM30.5 24.5V23.5H37.5V24.5H30.5ZM35.5 20.5H36.5V22.5H35.5V20.5ZM32.5 12.61V22.5H29.5V24.5H28.5V36.5075C28.064 36.5075 27.6285 36.6175 27.251 36.837C26.5935 36.0015 25.5825 35.5 24.5 35.5C24.154 35.5 23.818 35.55 23.5 35.6435V14.4095L32.5 12.61ZM15.5 17.5H22.5V36.1305C22 36.4785 21.589 36.952 21.3245 37.525C21.219 37.5105 21.112 37.5025 21.001 37.5015C20.5325 36.877 19.7915 36.5 19 36.5C17.6215 36.5 16.5 37.6215 16.5 39C16.5 39.169 16.5225 39.3355 16.556 39.5H14.5V37.6845L17.5 34.185V32.9545C19.193 32.6755 20.5 31.011 20.5 29C20.5 27.495 19.768 26.1825 18.6905 25.5H19.5V24.5H18.5V25.3915C18.0445 25.143 17.537 25 17 25C16.914 25 16.826 25.0055 16.737 25.014C16.4065 24.5395 15.9835 24.155 15.5 23.8915V17.5ZM17.5 27.5C17.5 26.975 17.4085 26.4745 17.247 26.015C18.51 26.1645 19.5 27.446 19.5 29C19.5 30.6545 18.3785 32 17 32C16.369 32 15.7695 31.7095 15.312 31.2055C16.593 30.611 17.5 29.175 17.5 27.5ZM14.5 31.7905C15.0365 32.4195 15.736 32.8305 16.5 32.956V33.8155L14.5 36.149V31.7905ZM11.5 27.5C11.5 25.8455 12.6215 24.5 14 24.5C15.3785 24.5 16.5 25.8455 16.5 27.5C16.5 28.949 15.6395 30.1605 14.5 30.4395V27H13.5V30.4395C12.3605 30.1605 11.5 28.949 11.5 27.5ZM10.5 34.5C10.5 33.397 11.173 32.5 12 32.5C12.827 32.5 13.5 33.397 13.5 34.5C13.5 35.603 12.827 36.5 12 36.5C11.173 36.5 10.5 35.603 10.5 34.5ZM12.5 37.4395C12.87 37.349 13.209 37.1575 13.5 36.8945V39.5H12.5V37.4395Z" fill="#333333"/>
<path d="M27.5 15.5H24.5V19.5H27.5V15.5ZM26.5 18.5H25.5V16.5H26.5V18.5Z" fill="#333333"/>
<path d="M27.5 20.5H24.5V24.5H27.5V20.5ZM26.5 23.5H25.5V21.5H26.5V23.5Z" fill="#333333"/>
<path d="M27.5 25.5H24.5V29.5H27.5V25.5ZM26.5 28.5H25.5V26.5H26.5V28.5Z" fill="#333333"/>
<path d="M27.5 30.5H24.5V34.5H27.5V30.5ZM26.5 33.5H25.5V31.5H26.5V33.5Z" fill="#333333"/>
<path d="M31.5 15.5H28.5V19.5H31.5V15.5ZM30.5 18.5H29.5V16.5H30.5V18.5Z" fill="#333333"/>
<path d="M16.5 18.5H17.5V19.5H16.5V18.5Z" fill="#333333"/>
<path d="M18.5 18.5H19.5V19.5H18.5V18.5Z" fill="#333333"/>
<path d="M20.5 18.5H21.5V19.5H20.5V18.5Z" fill="#333333"/>
<path d="M16.5 20.5H17.5V21.5H16.5V20.5Z" fill="#333333"/>
<path d="M18.5 20.5H19.5V21.5H18.5V20.5Z" fill="#333333"/>
<path d="M20.5 20.5H21.5V21.5H20.5V20.5Z" fill="#333333"/>
<path d="M18.5 22.5H19.5V23.5H18.5V22.5Z" fill="#333333"/>
<path d="M16.5 22.5H17.5V23.5H16.5V22.5Z" fill="#333333"/>
<path d="M20.5 22.5H21.5V23.5H20.5V22.5Z" fill="#333333"/>
<path d="M20.5 24.5H21.5V25.5H20.5V24.5Z" fill="#333333"/>
</svg>
