<svg width="32" height="32" viewBox="0 0 32 32" fill="none" xmlns="http://www.w3.org/2000/svg">
<g clip-path="url(#clip0)">
<path d="M30.4375 27.8006H30.0408V20.0599C30.0408 19.8011 29.831 19.5912 29.5721 19.5912C29.3131 19.5912 29.1033 19.8011 29.1033 20.0599V27.8007H19.1593V15.0582H28.7202C28.9315 15.0582 29.1034 15.2301 29.1034 15.4413V17.8516C29.1034 18.1104 29.3132 18.3203 29.5721 18.3203C29.8311 18.3203 30.0409 18.1104 30.0409 17.8516V15.4413C30.0409 14.7131 29.4484 14.1207 28.7202 14.1207H19.1593V5.60232C19.1593 4.92026 18.6286 4.34419 17.9498 4.28676V3.34644C17.9498 2.66169 17.4151 2.08338 16.7324 2.02988L4.59237 1.07838C3.82581 1.01782 3.16863 1.62576 3.16863 2.39494V3.14563C2.47344 3.20501 1.95919 3.78651 1.95919 4.46126V27.8006H1.5625C0.700938 27.8006 0 28.5015 0 29.3631C0 30.2246 0.700938 30.9256 1.5625 30.9256H30.4375C31.2991 30.9256 32 30.2246 32 29.3631C32 28.5015 31.2991 27.8006 30.4375 27.8006ZM4.10612 2.39501C4.10612 2.17051 4.29719 1.99551 4.51919 2.01307L16.6592 2.96451C16.8572 2.98007 17.0123 3.14782 17.0123 3.34644V4.21288L4.10606 3.20138V2.39501H4.10612ZM2.89669 4.46132C2.89669 4.23501 3.09025 4.06138 3.30969 4.07938L17.8686 5.22038C18.0666 5.23594 18.2218 5.40369 18.2218 5.60232V27.8006H16.9119V21.0894C16.9119 20.6628 16.5649 20.3157 16.1383 20.3157H11.7832C11.3566 20.3157 11.0096 20.6628 11.0096 21.0894V24.1302C11.0096 24.3891 11.2194 24.5989 11.4783 24.5989C11.7372 24.5989 11.9471 24.3891 11.9471 24.1302V21.2532H15.9744V27.8006H11.9471V26.3216C11.9471 26.0628 11.7372 25.8529 11.4783 25.8529C11.2194 25.8529 11.0096 26.0628 11.0096 26.3216V27.8006H2.89669V4.46132ZM30.4375 29.9881H1.5625C1.21788 29.9881 0.9375 29.7078 0.9375 29.3631C0.9375 29.0185 1.21788 28.7381 1.5625 28.7381H30.4375C30.7821 28.7381 31.0625 29.0185 31.0625 29.3631C31.0625 29.7078 30.7821 29.9881 30.4375 29.9881Z" fill="#333333"/>
<path d="M4.74406 10.184H6.64143C7.0875 10.184 7.45037 9.82113 7.45037 9.37513V7.91532C7.45037 7.46932 7.0875 7.10645 6.64143 7.10645H4.74406C4.29806 7.10645 3.93518 7.46932 3.93518 7.91532V9.37513C3.93518 9.82113 4.29806 10.184 4.74406 10.184ZM4.87268 8.04388H6.51293V9.2465H4.87268V8.04388Z" fill="#333333"/>
<path d="M9.47489 10.184H11.3723C11.8183 10.184 12.1811 9.82113 12.1811 9.37513V7.91532C12.1811 7.46932 11.8183 7.10645 11.3723 7.10645H9.47489C9.02889 7.10645 8.66602 7.46932 8.66602 7.91532V9.37513C8.66595 9.82113 9.02883 10.184 9.47489 10.184ZM9.60345 8.04388H11.2436V9.2465H9.60345V8.04388Z" fill="#333333"/>
<path d="M14.2057 10.184H16.1031C16.5492 10.184 16.912 9.82113 16.912 9.37513V7.91532C16.912 7.46932 16.5491 7.10645 16.1031 7.10645H14.2057C13.7597 7.10645 13.3969 7.46932 13.3969 7.91532V9.37513C13.3968 9.82113 13.7597 10.184 14.2057 10.184ZM14.3343 8.04388H15.9745V9.2465H14.3343V8.04388Z" fill="#333333"/>
<path d="M4.74406 14.3987H6.64143C7.0875 14.3987 7.45037 14.0358 7.45037 13.5898V12.1299C7.45037 11.6839 7.0875 11.321 6.64143 11.321H4.74406C4.29806 11.321 3.93518 11.6839 3.93518 12.1299V13.5897C3.93518 14.0358 4.29806 14.3987 4.74406 14.3987ZM4.87268 12.2585H6.51293V13.4612H4.87268V12.2585Z" fill="#333333"/>
<path d="M9.47489 14.3987H11.3723C11.8183 14.3987 12.1811 14.0358 12.1811 13.5898V12.1299C12.1811 11.6839 11.8183 11.321 11.3723 11.321H9.47489C9.02889 11.321 8.66602 11.6839 8.66602 12.1299V13.5897C8.66595 14.0358 9.02883 14.3987 9.47489 14.3987ZM9.60345 12.2585H11.2436V13.4612H9.60345V12.2585Z" fill="#333333"/>
<path d="M14.2057 14.3987H16.1031C16.5492 14.3987 16.912 14.0358 16.912 13.5898V12.1299C16.912 11.6839 16.5491 11.321 16.1031 11.321H14.2057C13.7597 11.321 13.3969 11.6839 13.3969 12.1299V13.5897C13.3968 14.0358 13.7597 14.3987 14.2057 14.3987ZM14.3343 12.2585H15.9745V13.4612H14.3343V12.2585Z" fill="#333333"/>
<path d="M4.74406 18.6134H6.64143C7.0875 18.6134 7.45037 18.2506 7.45037 17.8046V16.3448C7.45037 15.8988 7.0875 15.5359 6.64143 15.5359H4.74406C4.29806 15.5359 3.93518 15.8988 3.93518 16.3448V17.8046C3.93518 18.2506 4.29806 18.6134 4.74406 18.6134ZM4.87268 16.4733H6.51293V17.6759H4.87268V16.4733Z" fill="#333333"/>
<path d="M9.03443 20.3157H4.83518C4.33893 20.3157 3.93518 20.7194 3.93518 21.2157V22.4933C3.93518 22.9895 4.33893 23.3933 4.83518 23.3933H9.03443C9.53068 23.3933 9.93443 22.9895 9.93443 22.4933V21.2157C9.93443 20.7194 9.53068 20.3157 9.03443 20.3157ZM8.99693 22.4558H4.87268V21.2532H8.99693V22.4558Z" fill="#333333"/>
<path d="M9.47489 18.6134H11.3723C11.8183 18.6134 12.1811 18.2506 12.1811 17.8046V16.3448C12.1811 15.8988 11.8183 15.5359 11.3723 15.5359H9.47489C9.02889 15.5359 8.66602 15.8988 8.66602 16.3448V17.8046C8.66595 18.2506 9.02883 18.6134 9.47489 18.6134ZM9.60345 16.4733H11.2436V17.6759H9.60345V16.4733Z" fill="#333333"/>
<path d="M14.2057 18.6134H16.1031C16.5492 18.6134 16.912 18.2506 16.912 17.8046V16.3448C16.912 15.8988 16.5491 15.5359 16.1031 15.5359H14.2057C13.7597 15.5359 13.3969 15.8988 13.3969 16.3448V17.8046C13.3968 18.2506 13.7597 18.6134 14.2057 18.6134ZM14.3343 16.4733H15.9745V17.6759H14.3343V16.4733Z" fill="#333333"/>
<path d="M23.7857 18.2061C23.7857 17.7306 23.3989 17.3438 22.9234 17.3438H21.0092C20.5337 17.3438 20.1469 17.7306 20.1469 18.2061V19.7244C20.1469 20.1998 20.5337 20.5867 21.0092 20.5867H22.9234C23.3988 20.5867 23.7857 20.1999 23.7857 19.7244V18.2061ZM22.8482 19.6492H21.0844V18.2812H22.8482V19.6492Z" fill="#333333"/>
<path d="M22.9234 21.6697H21.0092C20.5337 21.6697 20.1469 22.0565 20.1469 22.532V24.0503C20.1469 24.5257 20.5337 24.9126 21.0092 24.9126H22.9234C23.3988 24.9126 23.7857 24.5258 23.7857 24.0503V22.532C23.7857 22.0565 23.3989 21.6697 22.9234 21.6697ZM22.8482 23.9751H21.0844V22.6072H22.8482V23.9751Z" fill="#333333"/>
<path d="M28.1458 18.2061C28.1458 17.7306 27.759 17.3438 27.2835 17.3438H25.3693C24.8938 17.3438 24.507 17.7306 24.507 18.2061V19.7244C24.507 20.1998 24.8938 20.5867 25.3693 20.5867H27.2835C27.7589 20.5867 28.1458 20.1999 28.1458 19.7244V18.2061ZM27.2083 19.6492H25.4445V18.2812H27.2083V19.6492Z" fill="#333333"/>
<path d="M27.2835 21.6697H25.3693C24.8938 21.6697 24.507 22.0565 24.507 22.532V24.0503C24.507 24.5257 24.8938 24.9126 25.3693 24.9126H27.2835C27.7589 24.9126 28.1458 24.5258 28.1458 24.0503V22.532C28.1458 22.0565 27.759 21.6697 27.2835 21.6697ZM27.2083 23.9751H25.4445V22.6072H27.2083V23.9751Z" fill="#333333"/>
</g>
<defs>
<clipPath id="clip0">
<rect width="32" height="32" fill="white"/>
</clipPath>
</defs>
</svg>
