<svg width="32" height="32" viewBox="0 0 32 32" fill="none" xmlns="http://www.w3.org/2000/svg">
<path d="M30.0102 15.4463C27.858 15.4463 25.8603 14.3774 24.6663 12.5861L24.2379 11.9436L23.8096 12.5861C22.6156 14.3774 20.6179 15.4463 18.4657 15.4463H16.5148V23.7028C16.5148 25.6984 17.4133 27.5741 18.9147 28.833H8.27682V26.7735H14.9702V17.5058H4.15782V21.6248H1.06857V1.02975H23.7231V10.2975H24.7528V0H0.0388184V22.3528L7.54879 29.8628H20.4974L24.2379 32L28.5886 29.5142C30.6687 28.3259 31.9611 26.0985 31.9611 23.7028V15.4463H30.0102ZM7.24707 28.105L1.7966 22.6545H7.24707V28.105ZM5.18757 21.6248V18.5355H13.9404V25.7438H8.27682V21.6248H5.18757ZM30.9313 23.7028C30.9313 25.7304 29.8377 27.6143 28.0779 28.6204L24.2379 30.8148L20.398 28.6204C18.6382 27.6143 17.5446 25.7304 17.5446 23.7028V16.476H18.4657C20.7208 16.476 22.8298 15.4643 24.2379 13.7379C25.6461 15.4643 27.7551 16.476 30.0102 16.476H30.9313V23.7028Z" fill="#333333"/>
<path d="M28.8719 20.595V23.7028C28.8719 24.993 28.1758 26.1922 27.0559 26.8322L27.5667 27.726C29.0068 26.9032 29.9016 25.3617 29.9016 23.7028V20.595H28.8719Z" fill="#333333"/>
<path d="M3.12817 2.05957V5.14882H21.6637V2.05957H3.12817ZM20.6339 4.11907H4.15792V3.08932H20.6339V4.11907Z" fill="#333333"/>
<path d="M28.5079 17.6565L21.6636 24.5007L19.9681 22.8052L19.2401 23.5333L21.6636 25.9568L29.2359 18.3845L28.5079 17.6565Z" fill="#333333"/>
<path d="M12.9108 19.5652H6.21741V20.5949H12.9108V19.5652Z" fill="#333333"/>
<path d="M12.9108 21.6248H9.30664V22.6545H12.9108V21.6248Z" fill="#333333"/>
<path d="M12.9108 23.6843H9.30664V24.7141H12.9108V23.6843Z" fill="#333333"/>
<path d="M19.6042 7.20825H3.12817V8.238H19.6042V7.20825Z" fill="#333333"/>
<path d="M19.6042 9.26782H3.12817V10.2976H19.6042V9.26782Z" fill="#333333"/>
<path d="M19.6042 11.3271H3.12817V12.3569H19.6042V11.3271Z" fill="#333333"/>
<path d="M12.9108 13.3867H3.12817V14.4165H12.9108V13.3867Z" fill="#333333"/>
<path d="M12.9108 15.4463H3.12817V16.476H12.9108V15.4463Z" fill="#333333"/>
<path d="M21.6637 7.20825H20.6339V8.238H21.6637V7.20825Z" fill="#333333"/>
<path d="M21.6637 9.26782H20.6339V10.2976H21.6637V9.26782Z" fill="#333333"/>
<path d="M21.6637 11.3271H20.6339V12.3569H21.6637V11.3271Z" fill="#333333"/>
<path d="M14.9703 13.3867H13.9406V14.4165H14.9703V13.3867Z" fill="#333333"/>
<path d="M14.9703 15.4463H13.9406V16.476H14.9703V15.4463Z" fill="#333333"/>
</svg>
