<svg width="32" height="32" viewBox="0 0 32 32" fill="none" xmlns="http://www.w3.org/2000/svg">
<g clip-path="url(#clip0)">
<path d="M26.6231 15.5955H27.7114C27.9782 15.5969 28.1984 15.3591 28.1788 15.0925C27.9655 12.1832 26.7063 9.43881 24.6332 7.36475C22.5603 5.29075 19.8167 4.03019 16.9077 3.81538C16.6404 3.79562 16.4031 4.01506 16.4044 4.28281V5.37687C16.4044 5.59987 16.223 5.78137 15.9999 5.78137C15.7769 5.78137 15.5954 5.59994 15.5954 5.37687V4.28281C15.5968 4.01481 15.359 3.79562 15.0921 3.81538C12.7264 3.99006 10.4775 4.84719 8.58831 6.29394C8.38281 6.45138 8.34381 6.74556 8.50119 6.95113C8.65856 7.15663 8.95281 7.19569 9.15837 7.03831C10.7677 5.80581 12.6597 5.03694 14.6579 4.79887V5.37694C14.6579 6.11687 15.2599 6.71894 15.9999 6.71894C16.7399 6.71894 17.3419 6.11694 17.3419 5.37694V4.799C19.8386 5.09762 22.1762 6.23263 23.9702 8.0275C25.7643 9.82256 26.8982 12.1608 27.1954 14.658H26.6231C25.8831 14.658 25.2811 15.26 25.2811 16C25.2811 16.74 25.8831 17.342 26.6231 17.342H27.1941C26.8944 19.8364 25.7597 22.1717 23.9663 23.9641C22.1728 25.7568 19.8369 26.8903 17.3419 27.1886V26.6231C17.3419 25.8832 16.7399 25.2811 15.9999 25.2811C15.2599 25.2811 14.6579 25.8831 14.6579 26.6231V27.1886C12.163 26.8903 9.82706 25.7567 8.03356 23.9641C6.24025 22.1717 5.1055 19.8364 4.80575 17.342H5.37681C6.11681 17.342 6.71881 16.74 6.71881 16C6.71881 15.2601 6.11681 14.6581 5.37681 14.6581H4.80406C5.075 12.3561 6.03512 10.2305 7.59825 8.48363C7.77094 8.29069 7.75444 7.99431 7.5615 7.82175C7.36863 7.64906 7.07225 7.66556 6.89962 7.85844C5.08387 9.88762 4.01931 12.3891 3.82106 15.0925C3.8015 15.3589 4.02069 15.5971 4.2885 15.5955H5.37687C5.59987 15.5955 5.78137 15.7769 5.78137 16C5.78137 16.2231 5.59994 16.4045 5.37687 16.4045H4.28944C4.02119 16.403 3.80212 16.6409 3.822 16.9081C4.03825 19.8145 5.29856 22.5559 7.37094 24.6272C9.44331 26.6986 12.1855 27.9576 15.0922 28.1723C15.3585 28.1919 15.5969 27.9722 15.5956 27.7048V26.6231C15.5956 26.4001 15.777 26.2186 16.0001 26.2186C16.2231 26.2186 16.4046 26.4001 16.4046 26.6231V27.7048C16.4024 27.9714 16.6412 28.192 16.9079 28.1723C19.8146 27.9576 22.5568 26.6986 24.6292 24.6272C26.7016 22.5559 27.9619 19.8145 28.1781 16.9081C28.198 16.6408 27.9783 16.4031 27.7107 16.4045H26.6231C26.4001 16.4045 26.2186 16.2231 26.2186 16C26.2186 15.7769 26.4001 15.5955 26.6231 15.5955ZM15.1889 19.13C14.7765 19.13 14.441 18.7338 14.441 18.2468C14.441 17.9879 14.2312 17.7781 13.9722 17.7781C13.7133 17.7781 13.5035 17.9879 13.5035 18.2468C13.5035 19.2507 14.2596 20.0675 15.1889 20.0675H15.5312V20.6223C15.5312 20.8812 15.7411 21.0911 16 21.0911C16.2589 21.0911 16.4688 20.8812 16.4688 20.6223V20.0675H16.8111C17.7404 20.0675 18.4965 19.2507 18.4965 18.2468V17.3454C18.4965 16.3415 17.7404 15.5247 16.8111 15.5247H16.4688V12.8571H16.8111C17.2235 12.8571 17.559 13.2533 17.559 13.7403C17.559 13.9992 17.7688 14.2091 18.0278 14.2091C18.2867 14.2091 18.4965 13.9992 18.4965 13.7403C18.4965 12.7364 17.7404 11.9196 16.8111 11.9196H16.4688V11.3648C16.4688 11.1059 16.2589 10.8961 16 10.8961C15.7411 10.8961 15.5312 11.1059 15.5312 11.3648V11.9196H15.1889C14.2596 11.9196 13.5035 12.7364 13.5035 13.7403V14.6416C13.5035 15.6456 14.2596 16.4623 15.1889 16.4623H15.5312V19.13H15.1889ZM16.4688 16.4622H16.8111C17.2235 16.4622 17.559 16.8584 17.559 17.3454V18.2468C17.559 18.7338 17.2235 19.13 16.8111 19.13H16.4688V16.4622ZM15.1889 15.5248C14.7765 15.5248 14.441 15.1286 14.441 14.6416V13.7403C14.441 13.2533 14.7765 12.8571 15.1889 12.8571H15.5312V15.5248H15.1889ZM13.017 22.244C12.9236 22.4854 13.0434 22.7569 13.2849 22.8504C14.1497 23.1853 15.0632 23.3552 15.9999 23.3552C20.1062 23.3552 23.447 20.0528 23.447 15.9936C23.447 11.9343 20.1063 8.63194 16 8.63194C11.8937 8.63194 8.55294 11.9344 8.55294 15.9936C8.55294 18.2013 9.54256 20.2733 11.2681 21.6783C11.469 21.8418 11.7642 21.8115 11.9276 21.6108C12.0911 21.41 12.0608 21.1147 11.8601 20.9513C10.3541 19.7251 9.49044 17.9181 9.49044 15.9936C9.49044 12.4513 12.4106 9.56944 16 9.56944C19.5894 9.56944 22.5096 12.4513 22.5096 15.9936C22.5096 19.5359 19.5894 22.4177 16 22.4177C15.1795 22.4177 14.3799 22.2692 13.6234 21.9762C13.3822 21.8827 13.1106 22.0026 13.017 22.244ZM30.658 14.658H29.9552C29.6496 11.4237 28.2243 8.39244 25.9128 6.08094C23.6028 3.77106 20.5738 2.34588 17.3419 2.03906V1.34194C17.342 0.602 16.74 0 16 0C15.26 0 14.658 0.602 14.658 1.34194V2.03906C11.4261 2.34588 8.39713 3.771 6.08712 6.08094C3.77569 8.39244 2.35031 11.4237 2.04469 14.658H1.342C0.602 14.658 0 15.2601 0 16C0 16.7399 0.602 17.342 1.342 17.342H2.04588C2.35394 20.5715 3.77887 23.5983 6.08719 25.9066C8.39719 28.2165 11.4262 29.6417 14.6581 29.9485V30.6581C14.658 31.398 15.26 32 16 32C16.74 32 17.342 31.398 17.342 30.658V29.9484C20.5739 29.6416 23.6029 28.2165 25.9129 25.9066C28.2212 23.5982 29.6461 20.5714 29.9542 17.3419H30.6581C31.3981 17.3419 32.0001 16.7399 32.0001 15.9999C32 15.26 31.398 14.658 30.658 14.658ZM30.658 16.4045H29.5212C29.2739 16.4045 29.0692 16.5966 29.0535 16.8434C28.8519 20.0091 27.5012 22.9924 25.2499 25.2437C22.9971 27.4964 20.0117 28.8474 16.8438 29.0476C16.5968 29.0632 16.4046 29.2679 16.4046 29.5154V30.658C16.4046 30.881 16.2231 31.0625 16.0001 31.0625C15.777 31.0625 15.5956 30.8811 15.5956 30.658V29.5154C15.5956 29.268 15.4033 29.0632 15.1564 29.0476C11.9884 28.8474 9.003 27.4964 6.75019 25.2437C4.49887 22.9924 3.14812 20.0091 2.94662 16.8434C2.93094 16.5966 2.72619 16.4045 2.47887 16.4045H1.342C1.119 16.4045 0.9375 16.2231 0.9375 16C0.9375 15.777 1.11894 15.5956 1.342 15.5956H2.47806C2.72556 15.5956 2.93037 15.4031 2.94587 15.1562C3.14481 11.9857 4.49581 8.99825 6.75012 6.74394C9.00294 4.49119 11.9883 3.14025 15.1563 2.94006C15.4033 2.92444 15.5955 2.71969 15.5955 2.47225V1.34194C15.5955 1.11894 15.7769 0.9375 16 0.9375C16.2231 0.9375 16.4045 1.11894 16.4045 1.34194V2.47219C16.4045 2.71956 16.5968 2.92438 16.8437 2.94C20.0117 3.14019 22.9971 4.49113 25.2499 6.74388C27.5042 8.99819 28.8552 11.9858 29.0541 15.1561C29.0696 15.4031 29.2744 15.5955 29.5219 15.5955H30.658C30.881 15.5955 31.0625 15.7769 31.0625 16C31.0625 16.2231 30.8811 16.4045 30.658 16.4045Z" fill="#333333"/>
</g>
<defs>
<clipPath id="clip0">
<rect width="32" height="32" fill="white"/>
</clipPath>
</defs>
</svg>
