<svg width="32" height="32" viewBox="0 0 32 32" fill="none" xmlns="http://www.w3.org/2000/svg">
<path d="M30.4 5.8H23.4667V3.66667C23.4648 2.19453 22.2721 1.00182 20.8 1H11.2C9.72787 1.00182 8.53516 2.19453 8.53333 3.66667V5.8H1.6C0.716406 5.8 0 6.51641 0 7.4V19.2719C0.00338541 19.9484 0.429687 20.5503 1.06667 20.7776V28.2C1.06667 29.0836 1.78307 29.8 2.66667 29.8H29.3333C30.2169 29.8 30.9333 29.0836 30.9333 28.2V20.7781C31.5703 20.5505 31.9969 19.9484 32 19.2719V7.4C32 6.51641 31.2836 5.8 30.4 5.8ZM9.6 3.66667C9.6 2.78307 10.3164 2.06667 11.2 2.06667H20.8C21.6836 2.06667 22.4 2.78307 22.4 3.66667V5.8H21.3333V3.66667C21.3333 3.37214 21.0945 3.13333 20.8 3.13333H11.2C10.9055 3.13333 10.6667 3.37214 10.6667 3.66667V5.8H9.6V3.66667ZM20.2667 5.8H11.7333V4.2H20.2667V5.8ZM29.8667 28.2C29.8667 28.4945 29.6279 28.7333 29.3333 28.7333H2.66667C2.37214 28.7333 2.13333 28.4945 2.13333 28.2V20.9609L13.8667 22.5792V23.9333C13.8667 24.8169 14.5831 25.5333 15.4667 25.5333H16.5333C17.4169 25.5333 18.1333 24.8169 18.1333 23.9333V22.5792L29.8667 20.9609V28.2ZM17.0667 23.9333C17.0667 24.2279 16.8279 24.4667 16.5333 24.4667H15.4667C15.1721 24.4667 14.9333 24.2279 14.9333 23.9333V20.7333C14.9333 20.4388 15.1721 20.2 15.4667 20.2H16.5333C16.8279 20.2 17.0667 20.4388 17.0667 20.7333V23.9333ZM30.9333 19.2719C30.9336 19.5378 30.738 19.7633 30.4747 19.8005L30.3268 19.8208L18.1333 21.5023V20.7333C18.1333 19.8497 17.4169 19.1333 16.5333 19.1333H15.4667C14.5831 19.1333 13.8667 19.8497 13.8667 20.7333V21.5023L1.52578 19.8005C1.2625 19.7635 1.06641 19.538 1.06667 19.2719V7.4C1.06667 7.10547 1.30547 6.86667 1.6 6.86667H30.4C30.6945 6.86667 30.9333 7.10547 30.9333 7.4V19.2719Z" fill="#333333"/>
<rect x="11" y="19" width="10" height="7" fill="#19E2D6"/>
<path d="M16 12.5C11.8525 12.5 8.5 15.8525 8.5 20C8.5 24.1475 11.8525 27.5 16 27.5C20.1475 27.5 23.5 24.1475 23.5 20C23.5 15.8525 20.1475 12.5 16 12.5ZM19.75 22.6925L18.6925 23.75L16 21.0575L13.3075 23.75L12.25 22.6925L14.9425 20L12.25 17.3075L13.3075 16.25L16 18.9425L18.6925 16.25L19.75 17.3075L17.0575 20L19.75 22.6925Z" fill="#333333"/>
</svg>
