<svg width="32" height="30" viewBox="0 0 32 30" fill="none" xmlns="http://www.w3.org/2000/svg">
<path d="M30.4 5.4001H23.4667V3.26676C23.4648 1.79463 22.2721 0.601921 20.8 0.600098H11.2C9.72787 0.601921 8.53516 1.79463 8.53333 3.26676V5.4001H1.6C0.716406 5.4001 0 6.1165 0 7.0001V18.872C0.00338541 19.5485 0.429687 20.1504 1.06667 20.3777V27.8001C1.06667 28.6837 1.78307 29.4001 2.66667 29.4001H29.3333C30.2169 29.4001 30.9333 28.6837 30.9333 27.8001V20.3782C31.5703 20.1506 31.9969 19.5485 32 18.872V7.0001C32 6.1165 31.2836 5.4001 30.4 5.4001ZM9.6 3.26676C9.6 2.38317 10.3164 1.66676 11.2 1.66676H20.8C21.6836 1.66676 22.4 2.38317 22.4 3.26676V5.4001H21.3333V3.26676C21.3333 2.97223 21.0945 2.73343 20.8 2.73343H11.2C10.9055 2.73343 10.6667 2.97223 10.6667 3.26676V5.4001H9.6V3.26676ZM20.2667 5.4001H11.7333V3.8001H20.2667V5.4001ZM29.8667 27.8001C29.8667 28.0946 29.6279 28.3334 29.3333 28.3334H2.66667C2.37214 28.3334 2.13333 28.0946 2.13333 27.8001V20.561L13.8667 22.1793V23.5334C13.8667 24.417 14.5831 25.1334 15.4667 25.1334H16.5333C17.4169 25.1334 18.1333 24.417 18.1333 23.5334V22.1793L29.8667 20.561V27.8001ZM17.0667 23.5334C17.0667 23.828 16.8279 24.0668 16.5333 24.0668H15.4667C15.1721 24.0668 14.9333 23.828 14.9333 23.5334V20.3334C14.9333 20.0389 15.1721 19.8001 15.4667 19.8001H16.5333C16.8279 19.8001 17.0667 20.0389 17.0667 20.3334V23.5334ZM30.9333 18.872C30.9336 19.1379 30.738 19.3634 30.4747 19.4006L30.3268 19.4209L18.1333 21.1024V20.3334C18.1333 19.4498 17.4169 18.7334 16.5333 18.7334H15.4667C14.5831 18.7334 13.8667 19.4498 13.8667 20.3334V21.1024L1.52578 19.4006C1.2625 19.3636 1.06641 19.1381 1.06667 18.872V7.0001C1.06667 6.70557 1.30547 6.46676 1.6 6.46676H30.4C30.6945 6.46676 30.9333 6.70557 30.9333 7.0001V18.872Z" fill="#333333"/>
</svg>
