<svg width="32" height="32" viewBox="0 0 32 32" fill="none" xmlns="http://www.w3.org/2000/svg">
<path d="M29.3333 0H2.66667C1.19463 0.00173394 0.00173394 1.19463 0 2.66667V29.3333C0.00173394 30.8054 1.19463 31.9983 2.66667 32H29.3333C30.8054 31.9983 31.9983 30.8054 32 29.3333V2.66667C31.9983 1.19463 30.8054 0.00173394 29.3333 0ZM2.66667 1.06667H29.3333C30.2166 1.06764 30.9324 1.78341 30.9333 2.66667V6.4H1.06667V2.66667C1.06764 1.78341 1.78341 1.06764 2.66667 1.06667ZM29.3333 30.9333H2.66667C1.78341 30.9324 1.06764 30.2166 1.06667 29.3333V7.46667H30.9333V29.3333C30.9324 30.2166 30.2166 30.9324 29.3333 30.9333Z" fill="#333333"/>
<path d="M3.73333 5.33333C4.61699 5.33333 5.33333 4.61699 5.33333 3.73333C5.33333 2.84968 4.61699 2.13333 3.73333 2.13333C2.84968 2.13333 2.13333 2.84968 2.13333 3.73333C2.1343 4.61659 2.85008 5.33236 3.73333 5.33333ZM3.73333 3.2C4.02788 3.2 4.26666 3.43878 4.26666 3.73333C4.26666 4.02788 4.02788 4.26666 3.73333 4.26666C3.43878 4.26666 3.2 4.02788 3.2 3.73333C3.20026 3.43889 3.43889 3.20026 3.73333 3.2Z" fill="#333333"/>
<path d="M8 5.33333C8.88366 5.33333 9.6 4.61699 9.6 3.73333C9.6 2.84968 8.88366 2.13333 8 2.13333C7.11635 2.13333 6.4 2.84968 6.4 3.73333C6.40097 4.61659 7.11675 5.33236 8 5.33333ZM8 3.2C8.29455 3.2 8.53333 3.43878 8.53333 3.73333C8.53333 4.02788 8.29455 4.26666 8 4.26666C7.70545 4.26666 7.46667 4.02788 7.46667 3.73333C7.46693 3.43889 7.70556 3.20026 8 3.2Z" fill="#333333"/>
<path d="M12.2667 5.33333C13.1503 5.33333 13.8667 4.61699 13.8667 3.73333C13.8667 2.84968 13.1503 2.13333 12.2667 2.13333C11.383 2.13333 10.6667 2.84968 10.6667 3.73333C10.6676 4.61659 11.3834 5.33236 12.2667 5.33333ZM12.2667 3.2C12.5612 3.2 12.8 3.43878 12.8 3.73333C12.8 4.02788 12.5612 4.26666 12.2667 4.26666C11.9721 4.26666 11.7333 4.02788 11.7333 3.73333C11.7336 3.43889 11.9722 3.20026 12.2667 3.2Z" fill="#333333"/>
<path d="M21.3333 17.6H25.6C26.1888 17.5993 26.666 17.1222 26.6667 16.5333V12.2667C26.666 11.6778 26.1888 11.2007 25.6 11.2H21.3333C20.7445 11.2007 20.2673 11.6778 20.2667 12.2667V16.5333C20.2673 17.1222 20.7445 17.5993 21.3333 17.6ZM21.3333 12.2667H25.6V16.5333H21.3333V12.2667Z" fill="#333333"/>
<path d="M26.1333 24.5333C25.8388 24.5333 25.6 24.7721 25.6 25.0667V26.1333H21.3333V21.8667H24C24.2946 21.8667 24.5333 21.6279 24.5333 21.3333C24.5333 21.0388 24.2946 20.8 24 20.8H21.3333C20.7445 20.8007 20.2673 21.2778 20.2667 21.8667V26.1333C20.2673 26.7222 20.7445 27.1993 21.3333 27.2H25.6C26.1888 27.1993 26.666 26.7222 26.6667 26.1333V25.0667C26.6667 24.7721 26.4279 24.5333 26.1333 24.5333Z" fill="#333333"/>
<path d="M4.8 12.8H9.06667C9.36122 12.8 9.6 12.5612 9.6 12.2667C9.6 11.9721 9.36122 11.7333 9.06667 11.7333H4.8C4.50545 11.7333 4.26667 11.9721 4.26667 12.2667C4.26667 12.5612 4.50545 12.8 4.8 12.8Z" fill="#333333"/>
<path d="M17.6 11.7333H11.2C10.9054 11.7333 10.6667 11.9721 10.6667 12.2667C10.6667 12.5612 10.9054 12.8 11.2 12.8H17.6C17.8946 12.8 18.1333 12.5612 18.1333 12.2667C18.1333 11.9721 17.8946 11.7333 17.6 11.7333Z" fill="#333333"/>
<path d="M17.6 13.8667H4.8C4.50545 13.8667 4.26667 14.1055 4.26667 14.4C4.26667 14.6946 4.50545 14.9333 4.8 14.9333H17.6C17.8946 14.9333 18.1333 14.6946 18.1333 14.4C18.1333 14.1055 17.8946 13.8667 17.6 13.8667Z" fill="#333333"/>
<path d="M4.8 17.0667H11.2C11.4946 17.0667 11.7333 16.8279 11.7333 16.5333C11.7333 16.2388 11.4946 16 11.2 16H4.8C4.50545 16 4.26667 16.2388 4.26667 16.5333C4.26667 16.8279 4.50545 17.0667 4.8 17.0667Z" fill="#333333"/>
<path d="M17.6 16H13.3333C13.0388 16 12.8 16.2388 12.8 16.5333C12.8 16.8279 13.0388 17.0667 13.3333 17.0667H17.6C17.8946 17.0667 18.1333 16.8279 18.1333 16.5333C18.1333 16.2388 17.8946 16 17.6 16Z" fill="#333333"/>
<path d="M4.8 22.4H9.06667C9.36122 22.4 9.6 22.1612 9.6 21.8667C9.6 21.5721 9.36122 21.3333 9.06667 21.3333H4.8C4.50545 21.3333 4.26667 21.5721 4.26667 21.8667C4.26667 22.1612 4.50545 22.4 4.8 22.4Z" fill="#333333"/>
<path d="M17.6 21.3333H11.2C10.9054 21.3333 10.6667 21.5721 10.6667 21.8667C10.6667 22.1612 10.9054 22.4 11.2 22.4H17.6C17.8946 22.4 18.1333 22.1612 18.1333 21.8667C18.1333 21.5721 17.8946 21.3333 17.6 21.3333Z" fill="#333333"/>
<path d="M17.6 23.4667H4.8C4.50545 23.4667 4.26667 23.7055 4.26667 24C4.26667 24.2946 4.50545 24.5333 4.8 24.5333H17.6C17.8946 24.5333 18.1333 24.2946 18.1333 24C18.1333 23.7055 17.8946 23.4667 17.6 23.4667Z" fill="#333333"/>
<path d="M11.2 25.6H4.8C4.50545 25.6 4.26667 25.8388 4.26667 26.1333C4.26667 26.4279 4.50545 26.6667 4.8 26.6667H11.2C11.4946 26.6667 11.7333 26.4279 11.7333 26.1333C11.7333 25.8388 11.4946 25.6 11.2 25.6Z" fill="#333333"/>
<path d="M17.6 25.6H13.3333C13.0388 25.6 12.8 25.8388 12.8 26.1333C12.8 26.4279 13.0388 26.6667 13.3333 26.6667H17.6C17.8946 26.6667 18.1333 26.4279 18.1333 26.1333C18.1333 25.8388 17.8946 25.6 17.6 25.6Z" fill="#333333"/>
<path d="M26.7733 19.9467L23.9421 23.7214L23.3104 23.0896C23.1011 22.8875 22.7685 22.8904 22.5628 23.0961C22.357 23.3018 22.3541 23.6345 22.5563 23.8437L23.6229 24.9104C23.7229 25.0105 23.8585 25.0667 24 25.0667C24.0125 25.0667 24.025 25.0661 24.038 25.0654C24.1922 25.0545 24.334 24.9771 24.4267 24.8533L27.6267 20.5867C27.8034 20.351 27.7556 20.0167 27.52 19.84C27.2844 19.6633 26.9501 19.711 26.7733 19.9467Z" fill="#333333"/>
</svg>
