<svg width="32" height="32" viewBox="0 0 32 32" fill="none" xmlns="http://www.w3.org/2000/svg">
<path d="M16 13.5C12.14 13.5 9 16.64 9 20.5C9 24.36 12.14 27.5 16 27.5C19.86 27.5 23 24.36 23 20.5C23 16.64 19.86 13.5 16 13.5ZM16 26.5C14.2805 26.5 12.7315 25.7685 11.6365 24.6055C12.277 22.7645 14.031 21.5 16 21.5C17.9685 21.5 19.7225 22.7645 20.3635 24.6055C19.2685 25.7685 17.72 26.5 16 26.5ZM14 18.5C14 17.397 14.897 16.5 16 16.5C17.103 16.5 18 17.397 18 18.5C18 19.603 17.103 20.5 16 20.5C14.897 20.5 14 19.603 14 18.5ZM21.0695 23.695C20.424 22.352 19.268 21.327 17.885 20.8305C18.5645 20.2805 19 19.4405 19 18.5C19 16.8455 17.6545 15.5 16 15.5C14.3455 15.5 13 16.8455 13 18.5C13 19.4405 13.4355 20.2805 14.115 20.8305C12.732 21.3265 11.5755 22.352 10.9305 23.6945C10.3445 22.7685 10 21.675 10 20.5C10 17.1915 12.6915 14.5 16 14.5C19.3085 14.5 22 17.1915 22 20.5C22 21.675 21.6555 22.7685 21.0695 23.695Z" fill="#333333"/>
<path d="M31.5 7C31.5 3.416 28.584 0.5 25 0.5C21.416 0.5 18.5 3.416 18.5 7C18.5 8.9665 19.39 10.8005 20.8985 12.03C20.4805 12.324 19.9345 12.3875 19.4265 12.1755C18.8635 11.942 18.5 11.398 18.5 10.7885V9.5H13.5V10.7885C13.5 11.398 13.1365 11.942 12.5475 12.186C12.061 12.389 11.5185 12.324 11.101 12.03C12.61 10.8005 13.5 8.9665 13.5 7C13.5 3.416 10.584 0.5 7 0.5C3.416 0.5 0.5 3.416 0.5 7C0.5 10.584 3.416 13.5 7 13.5C7.1545 13.5 7.3085 13.491 7.4625 13.48L6.4525 14.49L7.365 15.402C7.797 15.8345 7.9235 16.4805 7.6755 17.074C7.442 17.636 6.8975 18 6.2885 18H5V23H6.2885C6.8975 23 7.442 23.364 7.686 23.952C7.9235 24.5195 7.797 25.1655 7.365 25.598L6.4525 26.5095L9.99 30.0465L10.902 29.135C11.3345 28.703 11.98 28.5765 12.574 28.8245C13.1365 29.0575 13.5 29.602 13.5 30.2115V31.5H18.5V30.2115C18.5 29.602 18.8635 29.0575 19.4525 28.814C20.0195 28.576 20.666 28.7025 21.0985 29.1355L22.0105 30.047L25.548 26.51L24.6355 25.5985C24.2035 25.166 24.077 24.52 24.325 23.9265C24.558 23.364 25.1025 23 25.7115 23H27V18H25.7115C25.1025 18 24.558 17.636 24.314 17.048C24.0765 16.4805 24.203 15.8345 24.635 15.402L25.5475 14.49L24.5375 13.48C24.6915 13.491 24.8455 13.5 25 13.5C28.584 13.5 31.5 10.584 31.5 7ZM25 1.5C28.0325 1.5 30.5 3.9675 30.5 7C30.5 8.0845 30.18 9.094 29.636 9.9465C28.959 8.9545 27.991 8.227 26.8805 7.834C27.5625 7.284 28 6.4425 28 5.5C28 3.8455 26.6545 2.5 25 2.5C23.3455 2.5 22 3.8455 22 5.5C22 6.4425 22.438 7.284 23.12 7.8345C22.0105 8.2275 21.044 8.955 20.3665 9.9455C19.8135 9.0765 19.5 8.0625 19.5 7C19.5 3.9675 21.9675 1.5 25 1.5ZM23 5.5C23 4.397 23.897 3.5 25 3.5C26.103 3.5 27 4.397 27 5.5C27 6.603 26.103 7.5 25 7.5C23.897 7.5 23 6.603 23 5.5ZM7 1.5C10.0325 1.5 12.5 3.9675 12.5 7C12.5 8.062 12.187 9.0755 11.6345 9.944C10.9575 8.953 9.9905 8.227 8.8805 7.8345C9.5625 7.284 10 6.4425 10 5.5C10 3.8455 8.6545 2.5 7 2.5C5.3455 2.5 4 3.8455 4 5.5C4 6.4425 4.438 7.284 5.12 7.8345C4.0095 8.2275 3.042 8.9565 2.365 9.9485C1.82 9.095 1.5 8.085 1.5 7C1.5 3.9675 3.9675 1.5 7 1.5ZM5 5.5C5 4.397 5.897 3.5 7 3.5C8.103 3.5 9 4.397 9 5.5C9 6.603 8.103 7.5 7 7.5C5.897 7.5 5 6.603 5 5.5ZM7 12.5C5.435 12.5 4.024 11.84 3.0215 10.787C3.85 9.3745 5.348 8.5 7 8.5C8.654 8.5 10.1495 9.374 10.9775 10.7875C10.7905 10.9835 10.586 11.164 10.3695 11.3325L9.99 10.9525L8.731 12.2115C8.163 12.401 7.5815 12.5 7 12.5ZM25.7115 19H26V22H25.7115C24.6965 22 23.7895 22.606 23.391 23.5665C22.997 24.51 23.2075 25.585 23.928 26.3055L24.133 26.51L22.01 28.633L21.805 28.4285C21.085 27.7085 20.0095 27.4965 19.044 27.901C18.106 28.289 17.5 29.196 17.5 30.2115V30.5H14.5V30.2115C14.5 29.196 13.894 28.289 12.9335 27.891C11.9895 27.497 10.9145 27.7075 10.195 28.428L9.99 28.6325L7.867 26.5095L8.072 26.305C8.792 25.585 9.003 24.5095 8.599 23.5435C8.2105 22.606 7.3035 22 6.2885 22H6V19H6.2885C7.3035 19 8.2105 18.394 8.609 17.4335C9.003 16.49 8.7925 15.415 8.072 14.6945L7.867 14.4895L9.99 12.3665L10.195 12.5715C10.9145 13.2915 11.9895 13.5025 12.9565 13.0985C13.894 12.7105 14.5 11.8035 14.5 10.7885V10.5H17.5V10.7885C17.5 11.8035 18.106 12.7105 19.0665 13.109C20.01 13.5025 21.085 13.2925 21.805 12.572L22.01 12.367L24.133 14.49L23.928 14.695C23.208 15.415 22.997 16.49 23.401 17.4565C23.7895 18.394 24.6965 19 25.7115 19ZM22.01 10.9525L21.6305 11.3325C21.4135 11.1635 21.209 10.983 21.022 10.787C21.8505 9.3745 23.348 8.5 25 8.5C26.6545 8.5 28.15 9.374 28.978 10.7875C27.9755 11.84 26.5645 12.5 25 12.5C24.4185 12.5 23.837 12.401 23.269 12.2115L22.01 10.9525Z" fill="#333333"/>
</svg>
